<?xml version="1.0" encoding="UTF-8" standalone="no"?><svg xmlns="http://www.w3.org/2000/svg" xmlns:xlink="http://www.w3.org/1999/xlink" contentScriptType="application/ecmascript" contentStyleType="text/css" height="739px" preserveAspectRatio="none" style="width:438px;height:739px;" version="1.1" viewBox="0 0 438 739" width="438px" zoomAndPan="magnify"><defs><filter height="300%" id="fs3c9k6jgubm6" width="300%" x="-1" y="-1"><feGaussianBlur result="blurOut" stdDeviation="2.0"/><feColorMatrix in="blurOut" result="blurOut2" type="matrix" values="0 0 0 0 0 0 0 0 0 0 0 0 0 0 0 0 0 0 .4 0"/><feOffset dx="4.0" dy="4.0" in="blurOut2" result="blurOut3"/><feBlend in="SourceGraphic" in2="blurOut3" mode="normal"/></filter></defs><g><rect fill="#FEFECE" filter="url(#fs3c9k6jgubm6)" height="50" rx="12.5" ry="12.5" style="stroke: #A80036; stroke-width: 1.5;" width="50" x="159" y="597"/><line style="stroke: #A80036; stroke-width: 1.5;" x1="159" x2="209" y1="623.2969" y2="623.2969"/><text fill="#000000" font-family="sans-serif" font-size="14" lengthAdjust="spacingAndGlyphs" textLength="18" x="175" y="614.9951">q4</text><ellipse cx="85" cy="18" fill="#000000" filter="url(#fs3c9k6jgubm6)" rx="10" ry="10" style="stroke: none; stroke-width: 1.0;"/><ellipse cx="184" cy="718" fill="none" filter="url(#fs3c9k6jgubm6)" rx="10" ry="10" style="stroke: #000000; stroke-width: 1.0;"/><ellipse cx="184.5" cy="718.5" fill="#000000" rx="6" ry="6" style="stroke: none; stroke-width: 1.0;"/><rect fill="#FEFECE" filter="url(#fs3c9k6jgubm6)" height="50" rx="12.5" ry="12.5" style="stroke: #A80036; stroke-width: 1.5;" width="50" x="60" y="89"/><line style="stroke: #A80036; stroke-width: 1.5;" x1="60" x2="110" y1="115.2969" y2="115.2969"/><text fill="#000000" font-family="sans-serif" font-size="14" lengthAdjust="spacingAndGlyphs" textLength="18" x="76" y="106.9951">q2</text><rect fill="#FEFECE" filter="url(#fs3c9k6jgubm6)" height="50" rx="12.5" ry="12.5" style="stroke: #A80036; stroke-width: 1.5;" width="50" x="141" y="216"/><line style="stroke: #A80036; stroke-width: 1.5;" x1="141" x2="191" y1="242.2969" y2="242.2969"/><text fill="#000000" font-family="sans-serif" font-size="14" lengthAdjust="spacingAndGlyphs" textLength="18" x="157" y="233.9951">q5</text><rect fill="#FEFECE" filter="url(#fs3c9k6jgubm6)" height="50" rx="12.5" ry="12.5" style="stroke: #A80036; stroke-width: 1.5;" width="50" x="214" y="470"/><line style="stroke: #A80036; stroke-width: 1.5;" x1="214" x2="264" y1="496.2969" y2="496.2969"/><text fill="#000000" font-family="sans-serif" font-size="14" lengthAdjust="spacingAndGlyphs" textLength="18" x="230" y="487.9951">q7</text><rect fill="#FEFECE" filter="url(#fs3c9k6jgubm6)" height="50" rx="12.5" ry="12.5" style="stroke: #A80036; stroke-width: 1.5;" width="50" x="243" y="343"/><line style="stroke: #A80036; stroke-width: 1.5;" x1="243" x2="293" y1="369.2969" y2="369.2969"/><text fill="#000000" font-family="sans-serif" font-size="14" lengthAdjust="spacingAndGlyphs" textLength="18" x="259" y="360.9951">q6</text><!--link q2 to q4--><path d="M59.5691,137.1002 C36.4748,160.7214 6,199.7135 6,241 C6,241 6,241 6,495 C6,566.7518 103.0296,601.7816 153.8118,615.2016 " fill="none" id="q2-q4" style="stroke: #A80036; stroke-width: 1.0;"/><polygon fill="#A80036" points="158.8745,616.5085,151.1601,610.3858,154.0332,615.2587,149.1603,618.1318,158.8745,616.5085" style="stroke: #A80036; stroke-width: 1.0;"/><text fill="#000000" font-family="sans-serif" font-size="13" lengthAdjust="spacingAndGlyphs" textLength="68" x="7" y="372.5669">(1)_accept</text><!--link q2 to q5--><path d="M77.8515,139.0956 C75.1475,153.6309 74.3258,171.8023 82,186 C93.3853,207.0634 116.7361,221.3575 135.9342,230.0826 " fill="none" id="q2-q5" style="stroke: #A80036; stroke-width: 1.0;"/><polygon fill="#A80036" points="140.7158,232.1816,134.0828,224.9013,136.1375,230.1718,130.867,232.2265,140.7158,232.1816" style="stroke: #A80036; stroke-width: 1.0;"/><text fill="#000000" font-family="sans-serif" font-size="13" lengthAdjust="spacingAndGlyphs" textLength="39" x="83" y="182.0669">(2)put</text><!--link q5 to q2--><path d="M153.5709,215.7905 C146.3304,201.7154 136.7307,184.0386 127,169 C121.4931,160.4892 115.0538,151.6139 108.8949,143.5389 " fill="none" id="q5-q2" style="stroke: #A80036; stroke-width: 1.0;"/><polygon fill="#A80036" points="105.5099,139.1425,107.8313,148.7139,108.5603,143.1042,114.17,143.8332,105.5099,139.1425" style="stroke: #A80036; stroke-width: 1.0;"/><text fill="#000000" font-family="sans-serif" font-size="13" lengthAdjust="spacingAndGlyphs" textLength="39" x="137" y="182.0669">(3)get</text><!--link q5 to q4--><path d="M161.4457,266.1504 C155.2074,303.9246 145.3834,377.5417 151,440 C155.8521,493.9569 168.6403,555.8373 176.7977,591.7659 " fill="none" id="q5-q4" style="stroke: #A80036; stroke-width: 1.0;"/><polygon fill="#A80036" points="177.9662,596.8745,179.8585,587.2091,176.8512,592.0004,172.0599,588.9931,177.9662,596.8745" style="stroke: #A80036; stroke-width: 1.0;"/><text fill="#000000" font-family="sans-serif" font-size="13" lengthAdjust="spacingAndGlyphs" textLength="68" x="152" y="436.0669">(1)_accept</text><!--link q5 to q6--><path d="M167.7356,266.235 C169.8044,280.9947 174.2945,299.3483 184,313 C197.5943,332.1216 220.1133,346.3397 238.4148,355.5248 " fill="none" id="q5-q6" style="stroke: #A80036; stroke-width: 1.0;"/><polygon fill="#A80036" points="242.9689,357.7514,236.6406,350.2047,238.4771,355.5551,233.1266,357.3916,242.9689,357.7514" style="stroke: #A80036; stroke-width: 1.0;"/><text fill="#000000" font-family="sans-serif" font-size="13" lengthAdjust="spacingAndGlyphs" textLength="39" x="185" y="309.0669">(2)put</text><!--link q6 to q5--><path d="M257.187,342.9946 C250.2697,328.4903 240.4563,310.3199 229,296 C219.3062,283.8832 206.7261,272.2975 195.3592,262.9113 " fill="none" id="q6-q5" style="stroke: #A80036; stroke-width: 1.0;"/><polygon fill="#A80036" points="191.2338,259.5558,195.6919,268.3379,195.1127,262.7108,200.7399,262.1316,191.2338,259.5558" style="stroke: #A80036; stroke-width: 1.0;"/><text fill="#000000" font-family="sans-serif" font-size="13" lengthAdjust="spacingAndGlyphs" textLength="39" x="241" y="309.0669">(3)get</text><!--link q7 to q4--><path d="M228.1338,520.0911 C219.1695,540.7905 206.428,570.2118 196.938,592.125 " fill="none" id="q7-q4" style="stroke: #A80036; stroke-width: 1.0;"/><polygon fill="#A80036" points="194.8437,596.961,202.0911,590.292,196.8309,592.3728,194.75,587.1126,194.8437,596.961" style="stroke: #A80036; stroke-width: 1.0;"/><text fill="#000000" font-family="sans-serif" font-size="13" lengthAdjust="spacingAndGlyphs" textLength="68" x="215" y="563.0669">(1)_accept</text><!--link q7 to q6--><path d="M263.6028,469.9302 C270.6173,461.1738 277.3438,450.8122 281,440 C285.5261,426.6154 283.6645,411.2688 280.1118,398.1922 " fill="none" id="q7-q6" style="stroke: #A80036; stroke-width: 1.0;"/><polygon fill="#A80036" points="278.6186,393.1146,277.3204,402.8775,280.0293,397.9115,284.9954,400.6204,278.6186,393.1146" style="stroke: #A80036; stroke-width: 1.0;"/><text fill="#000000" font-family="sans-serif" font-size="13" lengthAdjust="spacingAndGlyphs" textLength="39" x="284" y="436.0669">(2)get</text><!--link q6 to q7--><path d="M247.2494,393.0182 C241.0977,401.9262 235.1631,412.3917 232,423 C228.0082,436.3874 228.8069,451.7344 230.9868,464.8105 " fill="none" id="q6-q7" style="stroke: #A80036; stroke-width: 1.0;"/><polygon fill="#A80036" points="231.9199,469.8879,234.227,460.3131,231.016,464.9703,226.3588,461.7593,231.9199,469.8879" style="stroke: #A80036; stroke-width: 1.0;"/><text fill="#000000" font-family="sans-serif" font-size="13" lengthAdjust="spacingAndGlyphs" textLength="39" x="233" y="436.0669">(2)put</text><!--link q6 to q4--><path d="M293.1472,382.0584 C307.4206,391.5654 323.9917,405.5587 332,423 C352.1506,466.8862 394.2242,446.2361 292,567 C271.8201,590.8398 238.7305,605.525 214.4875,613.6567 " fill="none" id="q6-q4" style="stroke: #A80036; stroke-width: 1.0;"/><polygon fill="#A80036" points="209.4564,615.2933,219.2524,616.3127,214.2111,613.7464,216.7774,608.7052,209.4564,615.2933" style="stroke: #A80036; stroke-width: 1.0;"/><text fill="#000000" font-family="sans-serif" font-size="13" lengthAdjust="spacingAndGlyphs" textLength="68" x="358" y="499.5669">(1)_accept</text><!--link *start to q2--><path d="M85,28.2737 C85,41.3608 85,64.5555 85,83.5207 " fill="none" id="*start-q2" style="stroke: #A80036; stroke-width: 1.0;"/><polygon fill="#A80036" points="85,88.7458,89,79.7458,85,83.7458,81,79.7458,85,88.7458" style="stroke: #A80036; stroke-width: 1.0;"/><!--link q4 to *end--><path d="M184,647.2229 C184,664.8366 184,687.7774 184,702.6928 " fill="none" id="q4-*end" style="stroke: #A80036; stroke-width: 1.0;"/><polygon fill="#A80036" points="184,707.8002,188,698.8002,184,702.8002,180,698.8002,184,707.8002" style="stroke: #A80036; stroke-width: 1.0;"/><!--
@startuml 
state q2
state q5
state q7
state q6
q2 - -> q4:(1)_accept
q2 - -> q5:(2)put
q5 - -> q4:(1)_accept
q5 - -> q6:(2)put
q5 - -> q2:(3)get
q7 - -> q4:(1)_accept
q7 - -> q6:(2)get
q6 - -> q4:(1)_accept
q6 - -> q7:(2)put
q6 - -> q5:(3)get
[*] - -> q2
state q4
q4 - -> [*]
state q2 {
}
state q5 {
}
state q7 {
}
state q6 {
}
@enduml

PlantUML version 1.2017.15(Tue Jul 04 01:45:34 JST 2017)
(GPL source distribution)
Java Runtime: OpenJDK Runtime Environment
JVM: OpenJDK 64-Bit Server VM
Java Version: 1.8.0_181-8u181-b13-1ubuntu0.18.04.1-b13
Operating System: Linux
OS Version: 4.15.0-39-generic
Default Encoding: UTF-8
Language: en
Country: US
--></g></svg>