<?xml version="1.0" encoding="UTF-8" standalone="no"?><svg xmlns="http://www.w3.org/2000/svg" xmlns:xlink="http://www.w3.org/1999/xlink" contentScriptType="application/ecmascript" contentStyleType="text/css" height="658px" preserveAspectRatio="none" style="width:447px;height:658px;" version="1.1" viewBox="0 0 447 658" width="447px" zoomAndPan="magnify"><defs><filter height="300%" id="f101nh4cbz2aha" width="300%" x="-1" y="-1"><feGaussianBlur result="blurOut" stdDeviation="2.0"/><feColorMatrix in="blurOut" result="blurOut2" type="matrix" values="0 0 0 0 0 0 0 0 0 0 0 0 0 0 0 0 0 0 .4 0"/><feOffset dx="4.0" dy="4.0" in="blurOut2" result="blurOut3"/><feBlend in="SourceGraphic" in2="blurOut3" mode="normal"/></filter></defs><g><rect fill="#FEFECE" filter="url(#f101nh4cbz2aha)" height="50" rx="12.5" ry="12.5" style="stroke: #A80036; stroke-width: 1.5;" width="50" x="179" y="516"/><line style="stroke: #A80036; stroke-width: 1.5;" x1="179" x2="229" y1="542.2969" y2="542.2969"/><text fill="#000000" font-family="sans-serif" font-size="14" lengthAdjust="spacingAndGlyphs" textLength="18" x="195" y="533.9951">q4</text><ellipse cx="222" cy="287" fill="#000000" filter="url(#f101nh4cbz2aha)" rx="10" ry="10" style="stroke: none; stroke-width: 1.0;"/><ellipse cx="204" cy="637" fill="none" filter="url(#f101nh4cbz2aha)" rx="10" ry="10" style="stroke: #000000; stroke-width: 1.0;"/><ellipse cx="204.5" cy="637.5" fill="#000000" rx="6" ry="6" style="stroke: none; stroke-width: 1.0;"/><rect fill="#FEFECE" filter="url(#f101nh4cbz2aha)" height="50" rx="12.5" ry="12.5" style="stroke: #A80036; stroke-width: 1.5;" width="50" x="66" y="8"/><line style="stroke: #A80036; stroke-width: 1.5;" x1="66" x2="116" y1="34.2969" y2="34.2969"/><text fill="#000000" font-family="sans-serif" font-size="14" lengthAdjust="spacingAndGlyphs" textLength="18" x="82" y="25.9951">q7</text><rect fill="#FEFECE" filter="url(#f101nh4cbz2aha)" height="50" rx="12.5" ry="12.5" style="stroke: #A80036; stroke-width: 1.5;" width="50" x="147" y="135"/><line style="stroke: #A80036; stroke-width: 1.5;" x1="147" x2="197" y1="161.2969" y2="161.2969"/><text fill="#000000" font-family="sans-serif" font-size="14" lengthAdjust="spacingAndGlyphs" textLength="18" x="163" y="152.9951">q6</text><rect fill="#FEFECE" filter="url(#f101nh4cbz2aha)" height="50" rx="12.5" ry="12.5" style="stroke: #A80036; stroke-width: 1.5;" width="50" x="236" y="389"/><line style="stroke: #A80036; stroke-width: 1.5;" x1="236" x2="286" y1="415.2969" y2="415.2969"/><text fill="#000000" font-family="sans-serif" font-size="14" lengthAdjust="spacingAndGlyphs" textLength="18" x="252" y="406.9951">q2</text><rect fill="#FEFECE" filter="url(#f101nh4cbz2aha)" height="50" rx="12.5" ry="12.5" style="stroke: #A80036; stroke-width: 1.5;" width="50" x="267" y="262"/><line style="stroke: #A80036; stroke-width: 1.5;" x1="267" x2="317" y1="288.2969" y2="288.2969"/><text fill="#000000" font-family="sans-serif" font-size="14" lengthAdjust="spacingAndGlyphs" textLength="18" x="283" y="279.9951">q5</text><!--link q7 to q4--><path d="M65.9569,53.5588 C40.884,76.6054 6,116.4887 6,160 C6,160 6,160 6,414 C6,492.7289 118.2832,524.904 173.7395,535.994 " fill="none" id="q7-q4" style="stroke: #A80036; stroke-width: 1.0;"/><polygon fill="#A80036" points="178.9232,537.0022,170.8526,531.3573,174.0152,536.0475,169.325,539.2101,178.9232,537.0022" style="stroke: #A80036; stroke-width: 1.0;"/><text fill="#000000" font-family="sans-serif" font-size="13" lengthAdjust="spacingAndGlyphs" textLength="68" x="7" y="291.5669">(1)_accept</text><!--link q7 to q6--><path d="M83.8515,58.0956 C81.1475,72.6309 80.3258,90.8023 88,105 C99.3853,126.0634 122.7361,140.3575 141.9342,149.0826 " fill="none" id="q7-q6" style="stroke: #A80036; stroke-width: 1.0;"/><polygon fill="#A80036" points="146.7158,151.1816,140.0828,143.9013,142.1375,149.1718,136.867,151.2265,146.7158,151.1816" style="stroke: #A80036; stroke-width: 1.0;"/><text fill="#000000" font-family="sans-serif" font-size="13" lengthAdjust="spacingAndGlyphs" textLength="39" x="89" y="101.0669">(2)get</text><!--link q6 to q7--><path d="M159.5709,134.7905 C152.3304,120.7154 142.7307,103.0386 133,88 C127.4931,79.4892 121.0538,70.6139 114.8949,62.5389 " fill="none" id="q6-q7" style="stroke: #A80036; stroke-width: 1.0;"/><polygon fill="#A80036" points="111.5099,58.1425,113.8313,67.7139,114.5603,62.1042,120.17,62.8332,111.5099,58.1425" style="stroke: #A80036; stroke-width: 1.0;"/><text fill="#000000" font-family="sans-serif" font-size="13" lengthAdjust="spacingAndGlyphs" textLength="39" x="143" y="101.0669">(2)put</text><!--link q6 to q4--><path d="M167.8543,185.215 C162.2514,223.0715 153.7511,296.7925 161,359 C167.3218,413.2513 183.9036,474.7941 194.531,510.6183 " fill="none" id="q6-q4" style="stroke: #A80036; stroke-width: 1.0;"/><polygon fill="#A80036" points="196.0539,515.7133,197.3088,505.9447,194.6219,510.9227,189.6439,508.2358,196.0539,515.7133" style="stroke: #A80036; stroke-width: 1.0;"/><text fill="#000000" font-family="sans-serif" font-size="13" lengthAdjust="spacingAndGlyphs" textLength="68" x="162" y="355.0669">(1)_accept</text><!--link q6 to q5--><path d="M178.2163,185.1 C182.8715,199.9919 190.4567,218.5299 202,232 C203.1686,233.3637 236.7211,253.7213 262.5174,269.2747 " fill="none" id="q6-q5" style="stroke: #A80036; stroke-width: 1.0;"/><polygon fill="#A80036" points="266.9087,271.9212,261.265,263.8497,262.6263,269.3403,257.1356,270.7016,266.9087,271.9212" style="stroke: #A80036; stroke-width: 1.0;"/><text fill="#000000" font-family="sans-serif" font-size="13" lengthAdjust="spacingAndGlyphs" textLength="39" x="203" y="228.0669">(3)get</text><!--link q5 to q6--><path d="M279.3163,261.7105 C271.2637,247.1085 259.9383,228.935 247,215 C233.7579,200.7377 216.3595,187.7133 201.6541,177.9228 " fill="none" id="q5-q6" style="stroke: #A80036; stroke-width: 1.0;"/><polygon fill="#A80036" points="197.1843,174.9903,202.5152,183.2717,201.3649,177.733,206.9036,176.5827,197.1843,174.9903" style="stroke: #A80036; stroke-width: 1.0;"/><text fill="#000000" font-family="sans-serif" font-size="13" lengthAdjust="spacingAndGlyphs" textLength="39" x="261" y="228.0669">(2)put</text><!--link q2 to q4--><path d="M249.7386,439.0911 C240.4484,459.7905 227.2435,489.2118 217.4085,511.125 " fill="none" id="q2-q4" style="stroke: #A80036; stroke-width: 1.0;"/><polygon fill="#A80036" points="215.238,515.961,222.5726,509.3881,217.2854,511.3994,215.2741,506.1122,215.238,515.961" style="stroke: #A80036; stroke-width: 1.0;"/><text fill="#000000" font-family="sans-serif" font-size="13" lengthAdjust="spacingAndGlyphs" textLength="68" x="236" y="482.0669">(1)_accept</text><!--link q2 to q5--><path d="M286.2507,398.7821 C299.5697,389.2115 314.6399,375.5463 322,359 C328.1809,345.1048 323.1653,329.5446 315.5873,316.4544 " fill="none" id="q2-q5" style="stroke: #A80036; stroke-width: 1.0;"/><polygon fill="#A80036" points="312.9316,312.1158,314.2187,321.8802,315.542,316.3803,321.0419,317.7036,312.9316,312.1158" style="stroke: #A80036; stroke-width: 1.0;"/><text fill="#000000" font-family="sans-serif" font-size="13" lengthAdjust="spacingAndGlyphs" textLength="39" x="325" y="355.0669">(2)put</text><!--link q5 to q2--><path d="M282.3028,312.1965 C279.0009,321.4641 275.5133,332.111 273,342 C269.5554,355.5533 266.8507,370.8006 264.888,383.7631 " fill="none" id="q5-q2" style="stroke: #A80036; stroke-width: 1.0;"/><polygon fill="#A80036" points="264.1457,388.795,269.4166,380.4753,264.8756,383.8486,261.5023,379.3075,264.1457,388.795" style="stroke: #A80036; stroke-width: 1.0;"/><text fill="#000000" font-family="sans-serif" font-size="13" lengthAdjust="spacingAndGlyphs" textLength="39" x="274" y="355.0669">(3)get</text><!--link q5 to q4--><path d="M317.1872,296.4131 C336.3317,305.0623 361.3034,319.9197 373,342 C376.5368,348.6766 374.6539,351.6277 373,359 C359.3353,419.9127 356.5658,441.2886 313,486 C291.1803,508.3935 258.3167,523.2411 234.3806,531.8039 " fill="none" id="q5-q4" style="stroke: #A80036; stroke-width: 1.0;"/><polygon fill="#A80036" points="229.4156,533.5362,239.2309,534.348,234.1365,531.889,236.5955,526.7946,229.4156,533.5362" style="stroke: #A80036; stroke-width: 1.0;"/><text fill="#000000" font-family="sans-serif" font-size="13" lengthAdjust="spacingAndGlyphs" textLength="68" x="367" y="418.5669">(1)_accept</text><!--link *start to q2--><path d="M225.0603,296.9655 C230.7402,315.4618 243.1193,355.7732 251.7522,383.8855 " fill="none" id="*start-q2" style="stroke: #A80036; stroke-width: 1.0;"/><polygon fill="#A80036" points="253.3181,388.9847,254.4997,379.207,251.8503,384.205,246.8522,381.5555,253.3181,388.9847" style="stroke: #A80036; stroke-width: 1.0;"/><!--link q4 to *end--><path d="M204,566.2229 C204,583.8366 204,606.7774 204,621.6928 " fill="none" id="q4-*end" style="stroke: #A80036; stroke-width: 1.0;"/><polygon fill="#A80036" points="204,626.8002,208,617.8002,204,621.8002,200,617.8002,204,626.8002" style="stroke: #A80036; stroke-width: 1.0;"/><!--
@startuml 
state q7
state q6
state q2
state q5
q7 - -> q4:(1)_accept
q7 - -> q6:(2)get
q6 - -> q4:(1)_accept
q6 - -> q7:(2)put
q6 - -> q5:(3)get
q2 - -> q4:(1)_accept
q2 - -> q5:(2)put
q5 - -> q4:(1)_accept
q5 - -> q6:(2)put
q5 - -> q2:(3)get
[*] - -> q2
state q4
q4 - -> [*]
state q7 {
}
state q6 {
}
state q2 {
}
state q5 {
}
@enduml

PlantUML version 1.2017.15(Tue Jul 04 01:45:34 JST 2017)
(GPL source distribution)
Java Runtime: OpenJDK Runtime Environment
JVM: OpenJDK 64-Bit Server VM
Java Version: 1.8.0_191-8u191-b12-2ubuntu0.18.04.1-b12
Operating System: Linux
OS Version: 4.15.0-46-generic
Default Encoding: UTF-8
Language: en
Country: US
--></g></svg>