<?xml version="1.0" encoding="UTF-8" standalone="no"?><svg xmlns="http://www.w3.org/2000/svg" xmlns:xlink="http://www.w3.org/1999/xlink" contentScriptType="application/ecmascript" contentStyleType="text/css" height="177px" preserveAspectRatio="none" style="width:1018px;height:177px;" version="1.1" viewBox="0 0 1018 177" width="1018px" zoomAndPan="magnify"><defs><filter height="300%" id="f1n8jb2mb7alfd" width="300%" x="-1" y="-1"><feGaussianBlur result="blurOut" stdDeviation="2.0"/><feColorMatrix in="blurOut" result="blurOut2" type="matrix" values="0 0 0 0 0 0 0 0 0 0 0 0 0 0 0 0 0 0 .4 0"/><feOffset dx="4.0" dy="4.0" in="blurOut2" result="blurOut3"/><feBlend in="SourceGraphic" in2="blurOut3" mode="normal"/></filter></defs><g><rect fill="#FEFECE" filter="url(#f1n8jb2mb7alfd)" height="50" rx="12.5" ry="12.5" style="stroke: #A80036; stroke-width: 1.5;" width="50" x="876" y="15"/><line style="stroke: #A80036; stroke-width: 1.5;" x1="876" x2="926" y1="41.2969" y2="41.2969"/><text fill="#000000" font-family="sans-serif" font-size="14" lengthAdjust="spacingAndGlyphs" textLength="18" x="892" y="32.9951">q8</text><ellipse cx="31" cy="156" fill="#000000" filter="url(#f1n8jb2mb7alfd)" rx="10" ry="10" style="stroke: none; stroke-width: 1.0;"/><ellipse cx="997" cy="40" fill="none" filter="url(#f1n8jb2mb7alfd)" rx="10" ry="10" style="stroke: #000000; stroke-width: 1.0;"/><ellipse cx="997.5" cy="40.5" fill="#000000" rx="6" ry="6" style="stroke: none; stroke-width: 1.0;"/><rect fill="#FEFECE" filter="url(#f1n8jb2mb7alfd)" height="50" rx="12.5" ry="12.5" style="stroke: #A80036; stroke-width: 1.5;" width="50" x="746" y="15"/><line style="stroke: #A80036; stroke-width: 1.5;" x1="746" x2="796" y1="41.2969" y2="41.2969"/><text fill="#000000" font-family="sans-serif" font-size="14" lengthAdjust="spacingAndGlyphs" textLength="18" x="762" y="32.9951">q7</text><rect fill="#FEFECE" filter="url(#f1n8jb2mb7alfd)" height="50" rx="12.5" ry="12.5" style="stroke: #A80036; stroke-width: 1.5;" width="50" x="579" y="15"/><line style="stroke: #A80036; stroke-width: 1.5;" x1="579" x2="629" y1="41.2969" y2="41.2969"/><text fill="#000000" font-family="sans-serif" font-size="14" lengthAdjust="spacingAndGlyphs" textLength="18" x="595" y="32.9951">q6</text><rect fill="#FEFECE" filter="url(#f1n8jb2mb7alfd)" height="50" rx="12.5" ry="12.5" style="stroke: #A80036; stroke-width: 1.5;" width="50" x="6" y="16"/><line style="stroke: #A80036; stroke-width: 1.5;" x1="6" x2="56" y1="42.2969" y2="42.2969"/><text fill="#000000" font-family="sans-serif" font-size="14" lengthAdjust="spacingAndGlyphs" textLength="18" x="22" y="33.9951">q4</text><rect fill="#FEFECE" filter="url(#f1n8jb2mb7alfd)" height="50" rx="12.5" ry="12.5" style="stroke: #A80036; stroke-width: 1.5;" width="50" x="203" y="73"/><line style="stroke: #A80036; stroke-width: 1.5;" x1="203" x2="253" y1="99.2969" y2="99.2969"/><text fill="#000000" font-family="sans-serif" font-size="14" lengthAdjust="spacingAndGlyphs" textLength="18" x="219" y="90.9951">q2</text><rect fill="#FEFECE" filter="url(#f1n8jb2mb7alfd)" height="50" rx="12.5" ry="12.5" style="stroke: #A80036; stroke-width: 1.5;" width="50" x="400" y="54"/><line style="stroke: #A80036; stroke-width: 1.5;" x1="400" x2="450" y1="80.2969" y2="80.2969"/><text fill="#000000" font-family="sans-serif" font-size="14" lengthAdjust="spacingAndGlyphs" textLength="18" x="416" y="71.9951">q5</text><!--link q7 to q8--><path d="M796.0653,40 C817.2402,40 847.6467,40 870.2826,40 " fill="none" id="q7-q8" style="stroke: #A80036; stroke-width: 1.0;"/><polygon fill="#A80036" points="875.5681,40,866.5681,36,870.5681,40,866.5681,44,875.5681,40" style="stroke: #A80036; stroke-width: 1.0;"/><text fill="#000000" font-family="sans-serif" font-size="13" lengthAdjust="spacingAndGlyphs" textLength="18" x="827" y="36.0669">(1)</text><!--link q6 to q7--><path d="M629.0016,40 C658.7628,40 708.4487,40 740.4571,40 " fill="none" id="q6-q7" style="stroke: #A80036; stroke-width: 1.0;"/><polygon fill="#A80036" points="745.8275,40,736.8275,36,740.8275,40,736.8275,44,745.8275,40" style="stroke: #A80036; stroke-width: 1.0;"/><text fill="#000000" font-family="sans-serif" font-size="13" lengthAdjust="spacingAndGlyphs" textLength="55" x="660" y="36.0669">(1)game</text><!--link q4 to q6--><path d="M56.0892,36.0699 C65.4389,34.4507 76.1675,32.8494 86,32 C260.4703,16.9276 304.8821,28.8889 480,28 C510.6663,27.8443 518.5101,24.7125 549,28 C557.2078,28.885 565.987,30.4924 574.0671,32.2492 " fill="none" id="q4-q6" style="stroke: #A80036; stroke-width: 1.0;"/><polygon fill="#A80036" points="578.9963,33.3572,571.0928,27.4805,574.1181,32.2605,569.3381,35.2857,578.9963,33.3572" style="stroke: #A80036; stroke-width: 1.0;"/><text fill="#000000" font-family="sans-serif" font-size="13" lengthAdjust="spacingAndGlyphs" textLength="85" x="284" y="21.0669">(1)sharapova</text><!--link q4 to q2--><path d="M56.2426,47.5392 C84.7177,55.007 132.3594,67.7766 173,80 C181.1269,82.4443 189.8787,85.2353 197.9582,87.878 " fill="none" id="q4-q2" style="stroke: #A80036; stroke-width: 1.0;"/><polygon fill="#A80036" points="202.8903,89.4999,195.5901,82.8887,198.1405,87.9381,193.0912,90.4884,202.8903,89.4999" style="stroke: #A80036; stroke-width: 1.0;"/><text fill="#000000" font-family="sans-serif" font-size="13" lengthAdjust="spacingAndGlyphs" textLength="67" x="96" y="53.0669">(2)williams</text><!--link q2 to q4--><path d="M202.8195,105.9766 C173.3563,113.8308 123.7966,122.3545 86,105 C70.3301,97.8051 57.4434,83.6983 48.0928,70.5559 " fill="none" id="q2-q4" style="stroke: #A80036; stroke-width: 1.0;"/><polygon fill="#A80036" points="45.0584,66.1472,46.8664,75.8287,47.8933,70.2658,53.4562,71.2928,45.0584,66.1472" style="stroke: #A80036; stroke-width: 1.0;"/><text fill="#000000" font-family="sans-serif" font-size="13" lengthAdjust="spacingAndGlyphs" textLength="85" x="87" y="101.0669">(1)sharapova</text><!--link q2 to q5--><path d="M253.351,95.555 C289.5522,92.0635 355.953,85.6594 394.6998,81.9224 " fill="none" id="q2-q5" style="stroke: #A80036; stroke-width: 1.0;"/><polygon fill="#A80036" points="399.7463,81.4356,390.4039,78.3181,394.7694,81.9156,391.1719,86.2811,399.7463,81.4356" style="stroke: #A80036; stroke-width: 1.0;"/><text fill="#000000" font-family="sans-serif" font-size="13" lengthAdjust="spacingAndGlyphs" textLength="67" x="293" y="81.0669">(2)williams</text><!--link q5 to q2--><path d="M399.9498,101.663 C391.1183,108.252 380.7072,114.5891 370,118 C333.1576,129.7367 321.0802,124.7088 283,118 C274.7136,116.5401 266.0329,113.9319 258.0801,111.071 " fill="none" id="q5-q2" style="stroke: #A80036; stroke-width: 1.0;"/><polygon fill="#A80036" points="253.2324,109.2651,260.2697,116.1554,257.9178,111.0107,263.0626,108.6588,253.2324,109.2651" style="stroke: #A80036; stroke-width: 1.0;"/><text fill="#000000" font-family="sans-serif" font-size="13" lengthAdjust="spacingAndGlyphs" textLength="85" x="284" y="114.0669">(1)sharapova</text><!--link q5 to q6--><path d="M450.2667,73.495 C482.7825,66.4105 539.2055,54.1172 573.9053,46.557 " fill="none" id="q5-q6" style="stroke: #A80036; stroke-width: 1.0;"/><polygon fill="#A80036" points="578.8619,45.477,569.2167,43.4846,573.9765,46.5414,570.9197,51.3013,578.8619,45.477" style="stroke: #A80036; stroke-width: 1.0;"/><text fill="#000000" font-family="sans-serif" font-size="13" lengthAdjust="spacingAndGlyphs" textLength="67" x="481" y="49.0669">(2)williams</text><!--link *start to q2--><path d="M41.1768,154.3508 C64.7636,150.3748 124.8311,139.3638 173,123 C181.3066,120.1781 190.0564,116.5315 198.0731,112.9003 " fill="none" id="*start-q2" style="stroke: #A80036; stroke-width: 1.0;"/><polygon fill="#A80036" points="202.9593,110.6488,193.1113,110.7823,198.4182,112.7412,196.4592,118.0481,202.9593,110.6488" style="stroke: #A80036; stroke-width: 1.0;"/><!--link q8 to *end--><path d="M926.2229,40 C943.8366,40 966.7774,40 981.6928,40 " fill="none" id="q8-*end" style="stroke: #A80036; stroke-width: 1.0;"/><polygon fill="#A80036" points="986.8002,40,977.8002,36,981.8002,40,977.8002,44,986.8002,40" style="stroke: #A80036; stroke-width: 1.0;"/><!--
@startuml 
left to right direction
state q7
state q6
state q4
state q2
state q5
q7 - -> q8:(1) 
q6 - -> q7:(1)game
q4 - -> q6:(1)sharapova
q4 - -> q2:(2)williams
q2 - -> q4:(1)sharapova
q2 - -> q5:(2)williams
q5 - -> q2:(1)sharapova
q5 - -> q6:(2)williams
[*] - -> q2
state q8
q8 - -> [*]
state q7 {
}
state q6 {
}
state q4 {
}
state q2 {
}
state q5 {
}
@enduml

PlantUML version 1.2017.15(Tue Jul 04 01:45:34 JST 2017)
(GPL source distribution)
Java Runtime: OpenJDK Runtime Environment
JVM: OpenJDK 64-Bit Server VM
Java Version: 1.8.0_191-8u191-b12-2ubuntu0.18.04.1-b12
Operating System: Linux
OS Version: 4.15.0-46-generic
Default Encoding: UTF-8
Language: en
Country: US
--></g></svg>