<?xml version="1.0" encoding="UTF-8" standalone="no"?><svg xmlns="http://www.w3.org/2000/svg" xmlns:xlink="http://www.w3.org/1999/xlink" contentScriptType="application/ecmascript" contentStyleType="text/css" height="131px" preserveAspectRatio="none" style="width:383px;height:131px;" version="1.1" viewBox="0 0 383 131" width="383px" zoomAndPan="magnify"><defs><filter height="300%" id="f1wg90gyw7aj43" width="300%" x="-1" y="-1"><feGaussianBlur result="blurOut" stdDeviation="2.0"/><feColorMatrix in="blurOut" result="blurOut2" type="matrix" values="0 0 0 0 0 0 0 0 0 0 0 0 0 0 0 0 0 0 .4 0"/><feOffset dx="4.0" dy="4.0" in="blurOut2" result="blurOut3"/><feBlend in="SourceGraphic" in2="blurOut3" mode="normal"/></filter></defs><g><rect fill="#FEFECE" filter="url(#f1wg90gyw7aj43)" height="50" rx="12.5" ry="12.5" style="stroke: #A80036; stroke-width: 1.5;" width="50" x="241" y="70"/><line style="stroke: #A80036; stroke-width: 1.5;" x1="241" x2="291" y1="96.2969" y2="96.2969"/><text fill="#000000" font-family="sans-serif" font-size="14" lengthAdjust="spacingAndGlyphs" textLength="18" x="257" y="87.9951">q2</text><ellipse cx="16" cy="95" fill="#000000" filter="url(#f1wg90gyw7aj43)" rx="10" ry="10" style="stroke: none; stroke-width: 1.0;"/><ellipse cx="362" cy="95" fill="none" filter="url(#f1wg90gyw7aj43)" rx="10" ry="10" style="stroke: #000000; stroke-width: 1.0;"/><ellipse cx="362.5" cy="95.5" fill="#000000" rx="6" ry="6" style="stroke: none; stroke-width: 1.0;"/><rect fill="#FEFECE" filter="url(#f1wg90gyw7aj43)" height="50" rx="12.5" ry="12.5" style="stroke: #A80036; stroke-width: 1.5;" width="50" x="87" y="70"/><line style="stroke: #A80036; stroke-width: 1.5;" x1="87" x2="137" y1="96.2969" y2="96.2969"/><text fill="#000000" font-family="sans-serif" font-size="14" lengthAdjust="spacingAndGlyphs" textLength="18" x="103" y="87.9951">q1</text><!--link q1 to q1--><path d="M102.8638,69.7223 C100.0952,52.2266 103.1406,35 112,35 C119.9596,35 123.2262,48.9051 121.7999,64.4177 " fill="none" id="q1-q1" style="stroke: #A80036; stroke-width: 1.0;"/><polygon fill="#A80036" points="121.1362,69.7223,126.2225,61.2885,121.7569,64.761,118.2844,60.2954,121.1362,69.7223" style="stroke: #A80036; stroke-width: 1.0;"/><text fill="#000000" font-family="sans-serif" font-size="13" lengthAdjust="spacingAndGlyphs" textLength="49" x="87.5" y="26.0669">(1)echo</text><!--link q1 to q2--><path d="M137.0855,95 C164.0448,95 206.8966,95 235.7146,95 " fill="none" id="q1-q2" style="stroke: #A80036; stroke-width: 1.0;"/><polygon fill="#A80036" points="240.9252,95,231.9252,91,235.9252,95,231.9252,99,240.9252,95" style="stroke: #A80036; stroke-width: 1.0;"/><text fill="#000000" font-family="sans-serif" font-size="13" lengthAdjust="spacingAndGlyphs" textLength="42" x="168" y="91.0669">(2)quit</text><!--link *start to q1--><path d="M26.2737,95 C39.3608,95 62.5555,95 81.5207,95 " fill="none" id="*start-q1" style="stroke: #A80036; stroke-width: 1.0;"/><polygon fill="#A80036" points="86.7458,95,77.7458,91,81.7458,95,77.7458,99,86.7458,95" style="stroke: #A80036; stroke-width: 1.0;"/><!--link q2 to *end--><path d="M291.2229,95 C308.8366,95 331.7774,95 346.6928,95 " fill="none" id="q2-*end" style="stroke: #A80036; stroke-width: 1.0;"/><polygon fill="#A80036" points="351.8002,95,342.8002,91,346.8002,95,342.8002,99,351.8002,95" style="stroke: #A80036; stroke-width: 1.0;"/><!--
@startuml 
left to right direction
state q1
q1 - -> q1:(1)echo
q1 - -> q2:(2)quit
[*] - -> q1
state q2
q2 - -> [*]
state q1 {
}
@enduml

PlantUML version 1.2017.15(Tue Jul 04 01:45:34 JST 2017)
(GPL source distribution)
Java Runtime: OpenJDK Runtime Environment
JVM: OpenJDK 64-Bit Server VM
Java Version: 1.8.0_191-8u191-b12-0ubuntu0.18.04.1-b12
Operating System: Linux
OS Version: 4.15.0-42-generic
Default Encoding: UTF-8
Language: en
Country: US
--></g></svg>