<?xml version="1.0" encoding="UTF-8" standalone="no"?><svg xmlns="http://www.w3.org/2000/svg" xmlns:xlink="http://www.w3.org/1999/xlink" contentScriptType="application/ecmascript" contentStyleType="text/css" height="131px" preserveAspectRatio="none" style="width:719px;height:131px;" version="1.1" viewBox="0 0 719 131" width="719px" zoomAndPan="magnify"><defs><filter height="300%" id="f1tktpag99lu4c" width="300%" x="-1" y="-1"><feGaussianBlur result="blurOut" stdDeviation="2.0"/><feColorMatrix in="blurOut" result="blurOut2" type="matrix" values="0 0 0 0 0 0 0 0 0 0 0 0 0 0 0 0 0 0 .4 0"/><feOffset dx="4.0" dy="4.0" in="blurOut2" result="blurOut3"/><feBlend in="SourceGraphic" in2="blurOut3" mode="normal"/></filter></defs><g><rect fill="#FEFECE" filter="url(#f1tktpag99lu4c)" height="50" rx="12.5" ry="12.5" style="stroke: #A80036; stroke-width: 1.5;" width="50" x="577" y="70"/><line style="stroke: #A80036; stroke-width: 1.5;" x1="577" x2="627" y1="96.4883" y2="96.4883"/><text fill="#000000" font-family="sans-serif" font-size="14" lengthAdjust="spacingAndGlyphs" textLength="18" x="593" y="88.5352">q5</text><ellipse cx="16" cy="95" fill="#000000" filter="url(#f1tktpag99lu4c)" rx="10" ry="10" style="stroke: none; stroke-width: 1.0;"/><ellipse cx="698" cy="95" fill="none" filter="url(#f1tktpag99lu4c)" rx="10" ry="10" style="stroke: #000000; stroke-width: 1.0;"/><ellipse cx="698.5" cy="95.5" fill="#000000" rx="6" ry="6" style="stroke: none; stroke-width: 1.0;"/><rect fill="#FEFECE" filter="url(#f1tktpag99lu4c)" height="50" rx="12.5" ry="12.5" style="stroke: #A80036; stroke-width: 1.5;" width="50" x="87" y="70"/><line style="stroke: #A80036; stroke-width: 1.5;" x1="87" x2="137" y1="96.4883" y2="96.4883"/><text fill="#000000" font-family="sans-serif" font-size="14" lengthAdjust="spacingAndGlyphs" textLength="18" x="103" y="88.5352">q1</text><rect fill="#FEFECE" filter="url(#f1tktpag99lu4c)" height="50" rx="12.5" ry="12.5" style="stroke: #A80036; stroke-width: 1.5;" width="50" x="243" y="70"/><line style="stroke: #A80036; stroke-width: 1.5;" x1="243" x2="293" y1="96.4883" y2="96.4883"/><text fill="#000000" font-family="sans-serif" font-size="14" lengthAdjust="spacingAndGlyphs" textLength="18" x="259" y="88.5352">q2</text><rect fill="#FEFECE" filter="url(#f1tktpag99lu4c)" height="50" rx="12.5" ry="12.5" style="stroke: #A80036; stroke-width: 1.5;" width="50" x="401" y="70"/><line style="stroke: #A80036; stroke-width: 1.5;" x1="401" x2="451" y1="96.4883" y2="96.4883"/><text fill="#000000" font-family="sans-serif" font-size="14" lengthAdjust="spacingAndGlyphs" textLength="18" x="417" y="88.5352">q4</text><!--link q1 to q2--><path d="M137.0641,95 C164.4697,95 208.383,95 237.7009,95 " fill="none" id="q1-q2" style="stroke: #A80036; stroke-width: 1.0;"/><polygon fill="#A80036" points="242.9981,95,233.9981,91,237.9981,95,233.9981,99,242.9981,95" style="stroke: #A80036; stroke-width: 1.0;"/><text fill="#000000" font-family="sans-serif" font-size="13" lengthAdjust="spacingAndGlyphs" textLength="44" x="168" y="91.5684">(1)_init</text><!--link q2 to q4--><path d="M293.0356,95 C320.9205,95 365.988,95 395.805,95 " fill="none" id="q2-q4" style="stroke: #A80036; stroke-width: 1.0;"/><polygon fill="#A80036" points="400.8205,95,391.8205,91,395.8205,95,391.8205,99,400.8205,95" style="stroke: #A80036; stroke-width: 1.0;"/><text fill="#000000" font-family="sans-serif" font-size="13" lengthAdjust="spacingAndGlyphs" textLength="46" x="324" y="91.5684">(1)echo</text><!--link q4 to q5--><path d="M451.2165,95 C482.9751,95 537.4974,95 571.5478,95 " fill="none" id="q4-q5" style="stroke: #A80036; stroke-width: 1.0;"/><polygon fill="#A80036" points="576.8303,95,567.8303,91,571.8303,95,567.8303,99,576.8303,95" style="stroke: #A80036; stroke-width: 1.0;"/><text fill="#000000" font-family="sans-serif" font-size="13" lengthAdjust="spacingAndGlyphs" textLength="64" x="482" y="91.5684">(1)_accept</text><!--link q4 to q4--><path d="M412.8032,69.7223 C408.8042,52.2266 413.2031,35 426,35 C437.4972,35 442.2156,48.9051 440.1554,64.4177 " fill="none" id="q4-q4" style="stroke: #A80036; stroke-width: 1.0;"/><polygon fill="#A80036" points="439.1968,69.7223,444.7335,61.5771,440.0859,64.802,436.861,60.1544,439.1968,69.7223" style="stroke: #A80036; stroke-width: 1.0;"/><text fill="#000000" font-family="sans-serif" font-size="13" lengthAdjust="spacingAndGlyphs" textLength="46" x="403" y="26.5684">(2)echo</text><!--link *start to q1--><path d="M26.2737,95 C39.3608,95 62.5555,95 81.5207,95 " fill="none" id="*start-q1" style="stroke: #A80036; stroke-width: 1.0;"/><polygon fill="#A80036" points="86.7458,95,77.7458,91,81.7458,95,77.7458,99,86.7458,95" style="stroke: #A80036; stroke-width: 1.0;"/><!--link q5 to *end--><path d="M627.2229,95 C644.8366,95 667.7774,95 682.6928,95 " fill="none" id="q5-*end" style="stroke: #A80036; stroke-width: 1.0;"/><polygon fill="#A80036" points="687.8002,95,678.8002,91,682.8002,95,678.8002,99,687.8002,95" style="stroke: #A80036; stroke-width: 1.0;"/><!--
@startuml 
left to right direction
state q1
state q2
state q4
q1 - -> q2:(1)_init
q2 - -> q4:(1)echo
q4 - -> q5:(1)_accept
q4 - -> q4:(2)echo
[*] - -> q1
state q5
q5 - -> [*]
state q1 {
}
state q2 {
}
state q4 {
}
@enduml

PlantUML version 1.2017.15(Tue Jul 04 01:45:34 JST 2017)
(GPL source distribution)
Java Runtime: Java(TM) SE Runtime Environment
JVM: Java HotSpot(TM) 64-Bit Server VM
Java Version: 1.8.0_151-b12
Operating System: Mac OS X
OS Version: 10.13.6
Default Encoding: UTF-8
Language: en
Country: US
--></g></svg>