<?xml version="1.0" encoding="UTF-8" standalone="no"?><svg xmlns="http://www.w3.org/2000/svg" xmlns:xlink="http://www.w3.org/1999/xlink" contentScriptType="application/ecmascript" contentStyleType="text/css" height="131px" preserveAspectRatio="none" style="width:570px;height:131px;" version="1.1" viewBox="0 0 570 131" width="570px" zoomAndPan="magnify"><defs><filter height="300%" id="f17b0izasg595d" width="300%" x="-1" y="-1"><feGaussianBlur result="blurOut" stdDeviation="2.0"/><feColorMatrix in="blurOut" result="blurOut2" type="matrix" values="0 0 0 0 0 0 0 0 0 0 0 0 0 0 0 0 0 0 .4 0"/><feOffset dx="4.0" dy="4.0" in="blurOut2" result="blurOut3"/><feBlend in="SourceGraphic" in2="blurOut3" mode="normal"/></filter></defs><g><rect fill="#FEFECE" filter="url(#f17b0izasg595d)" height="50" rx="12.5" ry="12.5" style="stroke: #A80036; stroke-width: 1.5;" width="50" x="428" y="70"/><line style="stroke: #A80036; stroke-width: 1.5;" x1="428" x2="478" y1="96.2969" y2="96.2969"/><text fill="#000000" font-family="sans-serif" font-size="14" lengthAdjust="spacingAndGlyphs" textLength="18" x="444" y="87.9951">q5</text><ellipse cx="16" cy="95" fill="#000000" filter="url(#f17b0izasg595d)" rx="10" ry="10" style="stroke: none; stroke-width: 1.0;"/><ellipse cx="549" cy="95" fill="none" filter="url(#f17b0izasg595d)" rx="10" ry="10" style="stroke: #000000; stroke-width: 1.0;"/><ellipse cx="549.5" cy="95.5" fill="#000000" rx="6" ry="6" style="stroke: none; stroke-width: 1.0;"/><rect fill="#FEFECE" filter="url(#f17b0izasg595d)" height="50" rx="12.5" ry="12.5" style="stroke: #A80036; stroke-width: 1.5;" width="50" x="87" y="70"/><line style="stroke: #A80036; stroke-width: 1.5;" x1="87" x2="137" y1="96.2969" y2="96.2969"/><text fill="#000000" font-family="sans-serif" font-size="14" lengthAdjust="spacingAndGlyphs" textLength="18" x="103" y="87.9951">q2</text><rect fill="#FEFECE" filter="url(#f17b0izasg595d)" height="50" rx="12.5" ry="12.5" style="stroke: #A80036; stroke-width: 1.5;" width="50" x="248" y="70"/><line style="stroke: #A80036; stroke-width: 1.5;" x1="248" x2="298" y1="96.2969" y2="96.2969"/><text fill="#000000" font-family="sans-serif" font-size="14" lengthAdjust="spacingAndGlyphs" textLength="18" x="264" y="87.9951">q4</text><!--link q2 to q4--><path d="M137.1563,95 C165.665,95 212.1227,95 242.6277,95 " fill="none" id="q2-q4" style="stroke: #A80036; stroke-width: 1.0;"/><polygon fill="#A80036" points="247.7553,95,238.7553,91,242.7553,95,238.7553,99,247.7553,95" style="stroke: #A80036; stroke-width: 1.0;"/><text fill="#000000" font-family="sans-serif" font-size="13" lengthAdjust="spacingAndGlyphs" textLength="49" x="168" y="91.0669">(1)echo</text><!--link q4 to q5--><path d="M298.0282,95 C330.5797,95 387.4114,95 422.4633,95 " fill="none" id="q4-q5" style="stroke: #A80036; stroke-width: 1.0;"/><polygon fill="#A80036" points="427.8948,95,418.8948,91,422.8948,95,418.8948,99,427.8948,95" style="stroke: #A80036; stroke-width: 1.0;"/><text fill="#000000" font-family="sans-serif" font-size="13" lengthAdjust="spacingAndGlyphs" textLength="68" x="329" y="91.0669">(1)_accept</text><!--link q4 to q4--><path d="M259.4648,69.7223 C255.3633,52.2266 259.875,35 273,35 C284.792,35 289.6314,48.9051 287.5183,64.4177 " fill="none" id="q4-q4" style="stroke: #A80036; stroke-width: 1.0;"/><polygon fill="#A80036" points="286.5352,69.7223,292.1085,61.6021,287.4465,64.806,284.2425,60.144,286.5352,69.7223" style="stroke: #A80036; stroke-width: 1.0;"/><text fill="#000000" font-family="sans-serif" font-size="13" lengthAdjust="spacingAndGlyphs" textLength="49" x="248.5" y="26.0669">(2)echo</text><!--link *start to q2--><path d="M26.2737,95 C39.3608,95 62.5555,95 81.5207,95 " fill="none" id="*start-q2" style="stroke: #A80036; stroke-width: 1.0;"/><polygon fill="#A80036" points="86.7458,95,77.7458,91,81.7458,95,77.7458,99,86.7458,95" style="stroke: #A80036; stroke-width: 1.0;"/><!--link q5 to *end--><path d="M478.2229,95 C495.8366,95 518.7774,95 533.6928,95 " fill="none" id="q5-*end" style="stroke: #A80036; stroke-width: 1.0;"/><polygon fill="#A80036" points="538.8002,95,529.8002,91,533.8002,95,529.8002,99,538.8002,95" style="stroke: #A80036; stroke-width: 1.0;"/><!--
@startuml 
left to right direction
state q2
state q4
q2 - -> q4:(1)echo
q4 - -> q5:(1)_accept
q4 - -> q4:(2)echo
[*] - -> q2
state q5
q5 - -> [*]
state q2 {
}
state q4 {
}
@enduml

PlantUML version 1.2017.15(Tue Jul 04 01:45:34 JST 2017)
(GPL source distribution)
Java Runtime: OpenJDK Runtime Environment
JVM: OpenJDK 64-Bit Server VM
Java Version: 1.8.0_181-8u181-b13-0ubuntu0.18.04.1-b13
Operating System: Linux
OS Version: 4.15.0-34-generic
Default Encoding: UTF-8
Language: en
Country: US
--></g></svg>