<?xml version="1.0" encoding="UTF-8" standalone="no"?>
<!DOCTYPE svg PUBLIC "-//W3C//DTD SVG 1.1//EN"
 "http://www.w3.org/Graphics/SVG/1.1/DTD/svg11.dtd">
<!-- Generated by graphviz version 2.38.0 (20140413.2041)
 -->
<!-- Title: flow Pages: 1 -->
<svg width="1013pt" height="326pt"
 viewBox="0.00 0.00 1013.00 326.00" xmlns="http://www.w3.org/2000/svg" xmlns:xlink="http://www.w3.org/1999/xlink">
<g id="graph0" class="graph" transform="scale(1 1) rotate(0) translate(4 322)">
<title>flow</title>
<polygon fill="white" stroke="none" points="-4,4 -4,-322 1009,-322 1009,4 -4,4"/>
<!-- rules -->
<g id="node1" class="node"><title>rules</title>
<polygon fill="none" stroke="black" points="63,-263 0,-263 0,-227 63,-227 63,-263"/>
<text text-anchor="start" x="8" y="-242.3" font-family="Times,serif" font-style="italic" font-size="14.00">SC</text>
<text text-anchor="start" x="24" y="-242.3" font-family="Times,serif" font-size="14.00">.rules</text>
</g>
<!-- spec -->
<g id="node2" class="node"><title>spec</title>
<polygon fill="none" stroke="black" points="214.5,-317 151.5,-317 151.5,-281 214.5,-281 214.5,-317"/>
<text text-anchor="start" x="159.5" y="-296.3" font-family="Times,serif" font-style="italic" font-size="14.00">SC</text>
<text text-anchor="start" x="175.5" y="-296.3" font-family="Times,serif" font-size="14.00">.rules</text>
</g>
<!-- rules&#45;&gt;spec -->
<g id="edge1" class="edge"><title>rules&#45;&gt;spec</title>
<path fill="none" stroke="black" d="M63.2179,-257.246C69.1045,-259.533 75.2308,-261.871 81,-264 100.923,-271.351 123.216,-279.124 141.779,-285.472"/>
<polygon fill="black" stroke="black" points="140.797,-288.835 151.391,-288.746 143.054,-282.209 140.797,-288.835"/>
<text text-anchor="middle" x="101" y="-281.8" font-family="Times,serif" font-size="14.00">rulespp</text>
</g>
<!-- rules_xml -->
<g id="node3" class="node"><title>rules_xml</title>
<polygon fill="none" stroke="black" points="227,-263 139,-263 139,-227 227,-227 227,-263"/>
<text text-anchor="start" x="147" y="-242.3" font-family="Times,serif" font-style="italic" font-size="14.00">SC</text>
<text text-anchor="start" x="163" y="-242.3" font-family="Times,serif" font-size="14.00">.rules.xml</text>
</g>
<!-- rules&#45;&gt;rules_xml -->
<g id="edge2" class="edge"><title>rules&#45;&gt;rules_xml</title>
<path fill="none" stroke="black" d="M63.1143,-245C81.9935,-245 106.725,-245 128.738,-245"/>
<polygon fill="black" stroke="black" points="128.959,-248.5 138.959,-245 128.959,-241.5 128.959,-248.5"/>
<text text-anchor="middle" x="101" y="-248.8" font-family="Times,serif" font-size="14.00">rulespp</text>
</g>
<!-- scxml -->
<g id="node12" class="node"><title>scxml</title>
<polygon fill="none" stroke="black" points="1000.5,-64 931.5,-64 931.5,-28 1000.5,-28 1000.5,-64"/>
<text text-anchor="start" x="939.5" y="-43.3" font-family="Times,serif" font-style="italic" font-size="14.00">SC</text>
<text text-anchor="start" x="955.5" y="-43.3" font-family="Times,serif" font-size="14.00">.scxml</text>
</g>
<!-- rules&#45;&gt;scxml -->
<g id="edge13" class="edge"><title>rules&#45;&gt;scxml</title>
<path fill="none" stroke="black" stroke-dasharray="1,5" d="M34.6969,-226.985C42.6957,-170.405 75.6166,-0 182,-0 182,-0 182,-0 774.5,-0 826.034,-0 883.273,-16.1028 921.427,-29.2537"/>
<polygon fill="black" stroke="black" points="920.585,-32.6682 931.18,-32.6949 922.915,-26.067 920.585,-32.6682"/>
<text text-anchor="middle" x="467" y="-3.8" font-family="Times,serif" font-size="14.00">rules2scxml.sh</text>
</g>
<!-- ldl -->
<g id="node4" class="node"><title>ldl</title>
<polygon fill="none" stroke="black" points="365,-317 311,-317 311,-281 365,-281 365,-317"/>
<text text-anchor="start" x="320.5" y="-296.3" font-family="Times,serif" font-style="italic" font-size="14.00">SC</text>
<text text-anchor="start" x="336.5" y="-296.3" font-family="Times,serif" font-size="14.00">.ldl</text>
</g>
<!-- spec&#45;&gt;ldl -->
<g id="edge3" class="edge"><title>spec&#45;&gt;ldl</title>
<path fill="none" stroke="black" d="M214.594,-299C239.274,-299 274.069,-299 300.257,-299"/>
<polygon fill="black" stroke="black" points="300.542,-302.5 310.542,-299 300.542,-295.5 300.542,-302.5"/>
<text text-anchor="middle" x="269" y="-302.8" font-family="Times,serif" font-size="14.00">rules2ldl</text>
</g>
<!-- dummy1 -->
<g id="node7" class="node"><title>dummy1</title>
<ellipse fill="white" stroke="white" cx="773.5" cy="-245" rx="1.8" ry="1.8"/>
</g>
<!-- rules_xml&#45;&gt;dummy1 -->
<g id="edge11" class="edge"><title>rules_xml&#45;&gt;dummy1</title>
<path fill="none" stroke="black" d="M227.274,-245C358.934,-245 747.185,-245 771.322,-245"/>
<text text-anchor="start" x="383" y="-249.8" font-family="Times,serif" font-size="14.00">(</text>
<text text-anchor="start" x="388" y="-249.8" font-family="Times,serif" font-style="italic" font-size="14.00">event names, code fragments</text>
<text text-anchor="start" x="546" y="-249.8" font-family="Times,serif" font-size="14.00">)</text>
</g>
<!-- mso -->
<g id="node5" class="node"><title>mso</title>
<polygon fill="none" stroke="black" points="629,-317 569,-317 569,-281 629,-281 629,-317"/>
<text text-anchor="start" x="577" y="-296.3" font-family="Times,serif" font-style="italic" font-size="14.00">SC</text>
<text text-anchor="start" x="593" y="-296.3" font-family="Times,serif" font-size="14.00">.mso</text>
</g>
<!-- ldl&#45;&gt;mso -->
<g id="edge4" class="edge"><title>ldl&#45;&gt;mso</title>
<path fill="none" stroke="black" d="M365.26,-299C410.954,-299 505.314,-299 558.788,-299"/>
<polygon fill="black" stroke="black" points="558.911,-302.5 568.911,-299 558.911,-295.5 558.911,-302.5"/>
<text text-anchor="middle" x="467" y="-302.8" font-family="Times,serif" font-size="14.00">ldl2mso</text>
</g>
<!-- dfa -->
<g id="node6" class="node"><title>dfa</title>
<polygon fill="none" stroke="black" points="814.5,-318 732.5,-318 732.5,-282 814.5,-282 814.5,-318"/>
<text text-anchor="start" x="740.5" y="-297.3" font-family="Times,serif" font-style="italic" font-size="14.00">SC</text>
<text text-anchor="start" x="756.5" y="-297.3" font-family="Times,serif" font-size="14.00">_dfa.xml</text>
</g>
<!-- mso&#45;&gt;dfa -->
<g id="edge5" class="edge"><title>mso&#45;&gt;dfa</title>
<path fill="none" stroke="black" d="M629.262,-299.17C654.628,-299.317 691.896,-299.533 722.06,-299.708"/>
<polygon fill="black" stroke="black" points="722.381,-303.209 732.402,-299.768 722.422,-296.21 722.381,-303.209"/>
<text text-anchor="middle" x="679" y="-303.8" font-family="Times,serif" font-size="14.00">mso2dfa.sh</text>
</g>
<!-- dfa&#45;&gt;dummy1 -->
<g id="edge6" class="edge"><title>dfa&#45;&gt;dummy1</title>
<path fill="none" stroke="black" d="M773.5,-281.832C773.5,-270.271 773.5,-258.71 773.5,-247.148"/>
</g>
<!-- dfadot -->
<g id="node11" class="node"><title>dfadot</title>
<polygon fill="none" stroke="black" points="1005,-318 927,-318 927,-282 1005,-282 1005,-318"/>
<text text-anchor="start" x="935" y="-297.3" font-family="Times,serif" font-style="italic" font-size="14.00">SC</text>
<text text-anchor="start" x="951" y="-297.3" font-family="Times,serif" font-size="14.00">_dfa.dot</text>
</g>
<!-- dfa&#45;&gt;dfadot -->
<g id="edge12" class="edge"><title>dfa&#45;&gt;dfadot</title>
<path fill="none" stroke="black" d="M814.9,-300C844.632,-300 885.18,-300 916.638,-300"/>
<polygon fill="black" stroke="black" points="916.929,-303.5 926.929,-300 916.929,-296.5 916.929,-303.5"/>
<text text-anchor="middle" x="872.5" y="-303.8" font-family="Times,serif" font-size="14.00">dfa2dot.sh</text>
</g>
<!-- dfa2 -->
<g id="node8" class="node"><title>dfa2</title>
<polygon fill="none" stroke="black" points="818,-208 729,-208 729,-172 818,-172 818,-208"/>
<text text-anchor="start" x="737" y="-187.3" font-family="Times,serif" font-style="italic" font-size="14.00">SC</text>
<text text-anchor="start" x="753" y="-187.3" font-family="Times,serif" font-size="14.00">_dfa2.xml</text>
</g>
<!-- dummy1&#45;&gt;dfa2 -->
<g id="edge7" class="edge"><title>dummy1&#45;&gt;dfa2</title>
<path fill="none" stroke="black" d="M773.5,-242.961C773.5,-238.727 773.5,-228.515 773.5,-218.175"/>
<polygon fill="black" stroke="black" points="777,-218.009 773.5,-208.009 770,-218.009 777,-218.009"/>
<text text-anchor="start" x="728" y="-222.9" font-family="Times,serif" font-size="14.00">(</text>
<text text-anchor="start" x="733" y="-222.9" font-family="Times,serif" font-style="italic" font-size="14.00">preprocess</text>
<text text-anchor="start" x="793" y="-222.9" font-family="Times,serif" font-size="14.00">)</text>
</g>
<!-- dummy1&#45;&gt;scxml -->
<g id="edge14" class="edge"><title>dummy1&#45;&gt;scxml</title>
<path fill="none" stroke="black" stroke-dasharray="1,5" d="M775.658,-244.416C780.902,-241.74 802.826,-230.21 818,-217 869.855,-171.856 919.743,-108.177 945.96,-72.638"/>
<polygon fill="black" stroke="black" points="949.025,-74.3756 952.102,-64.2374 943.374,-70.2441 949.025,-74.3756"/>
<text text-anchor="middle" x="872.5" y="-204.8" font-family="Times,serif" font-size="14.00">dfa2scxml.sh</text>
</g>
<!-- dfa3 -->
<g id="node9" class="node"><title>dfa3</title>
<polygon fill="none" stroke="black" points="818,-136 729,-136 729,-100 818,-100 818,-136"/>
<text text-anchor="start" x="737" y="-115.3" font-family="Times,serif" font-style="italic" font-size="14.00">SC</text>
<text text-anchor="start" x="753" y="-115.3" font-family="Times,serif" font-size="14.00">_dfa3.xml</text>
</g>
<!-- dfa2&#45;&gt;dfa3 -->
<g id="edge8" class="edge"><title>dfa2&#45;&gt;dfa3</title>
<path fill="none" stroke="black" d="M773.5,-171.587C773.5,-163.941 773.5,-154.892 773.5,-146.427"/>
<polygon fill="black" stroke="black" points="777,-146.169 773.5,-136.169 770,-146.169 777,-146.169"/>
<text text-anchor="middle" x="763" y="-150.3" font-family="Times,serif" font-size="14.00">dfa2dfa &#160;&#160;&#160;&#160;&#160;&#160;&#160;</text>
</g>
<!-- dfa4 -->
<g id="node10" class="node"><title>dfa4</title>
<polygon fill="none" stroke="black" points="818,-64 729,-64 729,-28 818,-28 818,-64"/>
<text text-anchor="start" x="737" y="-43.3" font-family="Times,serif" font-style="italic" font-size="14.00">SC</text>
<text text-anchor="start" x="753" y="-43.3" font-family="Times,serif" font-size="14.00">_dfa4.xml</text>
</g>
<!-- dfa3&#45;&gt;dfa4 -->
<g id="edge9" class="edge"><title>dfa3&#45;&gt;dfa4</title>
<path fill="none" stroke="black" d="M773.5,-99.5867C773.5,-91.9407 773.5,-82.8916 773.5,-74.4274"/>
<polygon fill="black" stroke="black" points="777,-74.1686 773.5,-64.1686 770,-74.1687 777,-74.1686"/>
<text text-anchor="start" x="726" y="-79.3" font-family="Times,serif" font-size="14.00">(</text>
<text text-anchor="start" x="731" y="-79.3" font-family="Times,serif" font-style="italic" font-size="14.00">postprocess</text>
<text text-anchor="start" x="795" y="-79.3" font-family="Times,serif" font-size="14.00">)</text>
</g>
<!-- dfa4&#45;&gt;scxml -->
<g id="edge10" class="edge"><title>dfa4&#45;&gt;scxml</title>
<path fill="none" stroke="black" d="M818.205,-46C849.095,-46 890.336,-46 921.239,-46"/>
<polygon fill="black" stroke="black" points="921.293,-49.5001 931.293,-46 921.293,-42.5001 921.293,-49.5001"/>
<text text-anchor="start" x="854" y="-50.8" font-family="Times,serif" font-size="14.00">(</text>
<text text-anchor="start" x="859" y="-50.8" font-family="Times,serif" font-style="italic" font-size="14.00">print</text>
<text text-anchor="start" x="886" y="-50.8" font-family="Times,serif" font-size="14.00">)</text>
</g>
</g>
</svg>
