<?xml version="1.0" encoding="UTF-8" standalone="no"?>
<!DOCTYPE svg PUBLIC "-//W3C//DTD SVG 1.1//EN"
 "http://www.w3.org/Graphics/SVG/1.1/DTD/svg11.dtd">
<!-- Generated by graphviz version 2.40.1 (20161225.0304)
 -->
<!-- Title: flow Pages: 1 -->
<svg width="965pt" height="326pt"
 viewBox="0.00 0.00 965.00 326.00" xmlns="http://www.w3.org/2000/svg" xmlns:xlink="http://www.w3.org/1999/xlink">
<g id="graph0" class="graph" transform="scale(1 1) rotate(0) translate(4 322)">
<title>flow</title>
<polygon fill="#ffffff" stroke="transparent" points="-4,4 -4,-322 961,-322 961,4 -4,4"/>
<!-- rules -->
<g id="node1" class="node">
<title>rules</title>
<polygon fill="none" stroke="#000000" points="54,-224 0,-224 0,-188 54,-188 54,-224"/>
<text text-anchor="start" x="8" y="-203.3" font-family="Times,serif" font-style="italic" font-size="14.00" fill="#000000">S</text>
<text text-anchor="start" x="15" y="-203.3" font-family="Times,serif" font-size="14.00" fill="#000000">.rules</text>
</g>
<!-- spec -->
<g id="node2" class="node">
<title>spec</title>
<polygon fill="none" stroke="#000000" points="184,-315 130,-315 130,-279 184,-279 184,-315"/>
<text text-anchor="start" x="139.5" y="-294.3" font-family="Times,serif" font-style="italic" font-size="14.00" fill="#000000">S</text>
<text text-anchor="start" x="146.5" y="-294.3" font-family="Times,serif" font-size="14.00" fill="#000000">.spec</text>
</g>
<!-- rules&#45;&gt;spec -->
<g id="edge1" class="edge">
<title>rules&#45;&gt;spec</title>
<path fill="none" stroke="#000000" d="M45.0842,-224.0637C53.0183,-231.5607 62.6426,-240.1008 72,-247 87.3207,-258.2959 105.3661,-269.211 120.8798,-277.9454"/>
<polygon fill="#000000" stroke="#000000" points="119.2384,-281.0372 129.6818,-282.8225 122.6311,-274.9143 119.2384,-281.0372"/>
<text text-anchor="middle" x="92" y="-274.8" font-family="Times,serif" font-size="14.00" fill="#000000">rulespp</text>
</g>
<!-- rules_xml -->
<g id="node3" class="node">
<title>rules_xml</title>
<polygon fill="none" stroke="#000000" points="184,-258 130,-258 130,-222 184,-222 184,-258"/>
<text text-anchor="start" x="140.5" y="-237.3" font-family="Times,serif" font-style="italic" font-size="14.00" fill="#000000">S</text>
<text text-anchor="start" x="147.5" y="-237.3" font-family="Times,serif" font-size="14.00" fill="#000000">.xml</text>
</g>
<!-- rules&#45;&gt;rules_xml -->
<g id="edge2" class="edge">
<title>rules&#45;&gt;rules_xml</title>
<path fill="none" stroke="#000000" d="M54.2523,-213.1275C73.3193,-218.1143 99.0181,-224.8355 119.9442,-230.3085"/>
<polygon fill="#000000" stroke="#000000" points="119.2234,-233.7376 129.7836,-232.8819 120.9946,-226.9654 119.2234,-233.7376"/>
<text text-anchor="middle" x="92" y="-231.8" font-family="Times,serif" font-size="14.00" fill="#000000">rulespp</text>
</g>
<!-- dfa2 -->
<g id="node8" class="node">
<title>dfa2</title>
<polygon fill="none" stroke="#000000" points="769.5,-208 696.5,-208 696.5,-172 769.5,-172 769.5,-208"/>
<text text-anchor="start" x="704.5" y="-187.3" font-family="Times,serif" font-style="italic" font-size="14.00" fill="#000000">S</text>
<text text-anchor="start" x="711.5" y="-187.3" font-family="Times,serif" font-size="14.00" fill="#000000">_dfa.xml</text>
</g>
<!-- rules&#45;&gt;dfa2 -->
<g id="edge14" class="edge">
<title>rules&#45;&gt;dfa2</title>
<path fill="none" stroke="#000000" stroke-dasharray="1,5" d="M54.2705,-200.6722C80.4924,-196.0178 121.2986,-190 157,-190 157,-190 157,-190 566,-190 606.4198,-190 652.3426,-190 685.7876,-190"/>
<polygon fill="#000000" stroke="#000000" points="686.1852,-193.5001 696.1851,-190 686.1851,-186.5001 686.1852,-193.5001"/>
<text text-anchor="middle" x="301.5" y="-193.8" font-family="Times,serif" font-size="14.00" fill="#000000">rules2dfa.sh</text>
</g>
<!-- scxml -->
<g id="node12" class="node">
<title>scxml</title>
<polygon fill="none" stroke="#000000" points="949.5,-64 889.5,-64 889.5,-28 949.5,-28 949.5,-64"/>
<text text-anchor="start" x="897.5" y="-43.3" font-family="Times,serif" font-style="italic" font-size="14.00" fill="#000000">S</text>
<text text-anchor="start" x="904.5" y="-43.3" font-family="Times,serif" font-size="14.00" fill="#000000">.scxml</text>
</g>
<!-- rules&#45;&gt;scxml -->
<g id="edge13" class="edge">
<title>rules&#45;&gt;scxml</title>
<path fill="none" stroke="#000000" stroke-dasharray="1,5" d="M29.5991,-187.7189C37.8983,-137.3029 68.6141,0 157,0 157,0 157,0 733,0 784.8893,0 842.5984,-16.9931 879.8841,-30.3227"/>
<polygon fill="#000000" stroke="#000000" points="878.7781,-33.6448 889.3719,-33.7936 881.1831,-27.0709 878.7781,-33.6448"/>
<text text-anchor="middle" x="437" y="-3.8" font-family="Times,serif" font-size="14.00" fill="#000000">rules2scxml.sh</text>
</g>
<!-- ldl -->
<g id="node4" class="node">
<title>ldl</title>
<polygon fill="none" stroke="#000000" points="328.5,-316 274.5,-316 274.5,-280 328.5,-280 328.5,-316"/>
<text text-anchor="start" x="288.5" y="-295.3" font-family="Times,serif" font-style="italic" font-size="14.00" fill="#000000">S</text>
<text text-anchor="start" x="295.5" y="-295.3" font-family="Times,serif" font-size="14.00" fill="#000000">.ldl</text>
</g>
<!-- spec&#45;&gt;ldl -->
<g id="edge3" class="edge">
<title>spec&#45;&gt;ldl</title>
<path fill="none" stroke="#000000" d="M184.1793,-297.1881C206.7844,-297.3445 239.1899,-297.5688 264.218,-297.742"/>
<polygon fill="#000000" stroke="#000000" points="264.4185,-301.2434 274.4425,-297.8128 264.467,-294.2435 264.4185,-301.2434"/>
<text text-anchor="middle" x="226" y="-300.8" font-family="Times,serif" font-size="14.00" fill="#000000">rules2ldl</text>
</g>
<!-- dummy1 -->
<g id="node7" class="node">
<title>dummy1</title>
<ellipse fill="#ffffff" stroke="#ffffff" cx="733" cy="-245" rx="1.8" ry="1.8"/>
</g>
<!-- rules_xml&#45;&gt;dummy1 -->
<g id="edge11" class="edge">
<title>rules_xml&#45;&gt;dummy1</title>
<path fill="none" stroke="#000000" d="M184.0091,-240.2345C293.4381,-241.1844 699.4969,-244.7092 731.0533,-244.9831"/>
<text text-anchor="start" x="353" y="-247.8" font-family="Times,serif" font-size="14.00" fill="#000000">(</text>
<text text-anchor="start" x="358" y="-247.8" font-family="Times,serif" font-style="italic" font-size="14.00" fill="#000000">event names, code fragments</text>
<text text-anchor="start" x="516" y="-247.8" font-family="Times,serif" font-size="14.00" fill="#000000">)</text>
</g>
<!-- mso -->
<g id="node5" class="node">
<title>mso</title>
<polygon fill="none" stroke="#000000" points="593,-317 539,-317 539,-281 593,-281 593,-317"/>
<text text-anchor="start" x="548.5" y="-296.3" font-family="Times,serif" font-style="italic" font-size="14.00" fill="#000000">S</text>
<text text-anchor="start" x="555.5" y="-296.3" font-family="Times,serif" font-size="14.00" fill="#000000">.mso</text>
</g>
<!-- ldl&#45;&gt;mso -->
<g id="edge4" class="edge">
<title>ldl&#45;&gt;mso</title>
<path fill="none" stroke="#000000" d="M328.8099,-298.1033C376.4504,-298.2834 474.7967,-298.6552 528.6825,-298.8589"/>
<polygon fill="#000000" stroke="#000000" points="528.8255,-302.3594 538.8387,-298.8973 528.852,-295.3594 528.8255,-302.3594"/>
<text text-anchor="middle" x="437" y="-301.8" font-family="Times,serif" font-size="14.00" fill="#000000">ldl2mso</text>
</g>
<!-- dfa -->
<g id="node6" class="node">
<title>dfa</title>
<polygon fill="none" stroke="#000000" points="773,-318 693,-318 693,-282 773,-282 773,-318"/>
<text text-anchor="start" x="701" y="-297.3" font-family="Times,serif" font-style="italic" font-size="14.00" fill="#000000">S</text>
<text text-anchor="start" x="708" y="-297.3" font-family="Times,serif" font-size="14.00" fill="#000000">_dfa0.xml</text>
</g>
<!-- mso&#45;&gt;dfa -->
<g id="edge5" class="edge">
<title>mso&#45;&gt;dfa</title>
<path fill="none" stroke="#000000" d="M593.2031,-299.1629C617.3447,-299.3075 653.2384,-299.5224 682.6099,-299.6983"/>
<polygon fill="#000000" stroke="#000000" points="682.6762,-303.1986 692.6971,-299.7587 682.7182,-296.1988 682.6762,-303.1986"/>
<text text-anchor="middle" x="643" y="-302.8" font-family="Times,serif" font-size="14.00" fill="#000000">mso2dfa.sh</text>
</g>
<!-- dfa&#45;&gt;dummy1 -->
<g id="edge6" class="edge">
<title>dfa&#45;&gt;dummy1</title>
<path fill="none" stroke="#000000" d="M733,-281.8323C733,-270.271 733,-258.7097 733,-247.1484"/>
</g>
<!-- dfadot -->
<g id="node11" class="node">
<title>dfadot</title>
<polygon fill="none" stroke="#000000" points="957,-318 882,-318 882,-282 957,-282 957,-318"/>
<text text-anchor="start" x="890" y="-297.3" font-family="Times,serif" font-style="italic" font-size="14.00" fill="#000000">S</text>
<text text-anchor="start" x="897" y="-297.3" font-family="Times,serif" font-size="14.00" fill="#000000">_dfa0.dot</text>
</g>
<!-- dfa&#45;&gt;dfadot -->
<g id="edge12" class="edge">
<title>dfa&#45;&gt;dfadot</title>
<path fill="none" stroke="#000000" d="M773.0089,-300C801.9533,-300 841.1895,-300 871.7708,-300"/>
<polygon fill="#000000" stroke="#000000" points="871.7827,-303.5001 881.7826,-300 871.7826,-296.5001 871.7827,-303.5001"/>
<text text-anchor="middle" x="827.5" y="-303.8" font-family="Times,serif" font-size="14.00" fill="#000000">dfa2dot.sh</text>
</g>
<!-- dummy1&#45;&gt;dfa2 -->
<g id="edge7" class="edge">
<title>dummy1&#45;&gt;dfa2</title>
<path fill="none" stroke="#000000" d="M733,-242.9608C733,-238.7273 733,-228.5146 733,-218.1747"/>
<polygon fill="#000000" stroke="#000000" points="736.5001,-218.009 733,-208.0091 729.5001,-218.0091 736.5001,-218.009"/>
<text text-anchor="start" x="694.5" y="-222.9" font-family="Times,serif" font-size="14.00" fill="#000000">(</text>
<text text-anchor="start" x="699.5" y="-222.9" font-family="Times,serif" font-style="italic" font-size="14.00" fill="#000000">combine</text>
<text text-anchor="start" x="745.5" y="-222.9" font-family="Times,serif" font-size="14.00" fill="#000000">)</text>
</g>
<!-- dfa3 -->
<g id="node9" class="node">
<title>dfa3</title>
<polygon fill="none" stroke="#000000" points="773,-136 693,-136 693,-100 773,-100 773,-136"/>
<text text-anchor="start" x="701" y="-115.3" font-family="Times,serif" font-style="italic" font-size="14.00" fill="#000000">S</text>
<text text-anchor="start" x="708" y="-115.3" font-family="Times,serif" font-size="14.00" fill="#000000">_dfa2.xml</text>
</g>
<!-- dfa2&#45;&gt;dfa3 -->
<g id="edge8" class="edge">
<title>dfa2&#45;&gt;dfa3</title>
<path fill="none" stroke="#000000" d="M733,-171.5867C733,-163.9407 733,-154.8916 733,-146.4274"/>
<polygon fill="#000000" stroke="#000000" points="736.5001,-146.1686 733,-136.1686 729.5001,-146.1687 736.5001,-146.1686"/>
<text text-anchor="middle" x="722.5" y="-150.3" font-family="Times,serif" font-size="14.00" fill="#000000">modelgen &#160;&#160;&#160;&#160;&#160;&#160;&#160;&#160;&#160;</text>
</g>
<!-- dfa2&#45;&gt;scxml -->
<g id="edge15" class="edge">
<title>dfa2&#45;&gt;scxml</title>
<path fill="none" stroke="#000000" stroke-dasharray="1,5" d="M756.6204,-171.7623C789.9721,-146.0108 850.9327,-98.942 888.0751,-70.2637"/>
<polygon fill="#000000" stroke="#000000" points="890.2953,-72.9714 896.0714,-64.0896 886.0172,-67.4308 890.2953,-72.9714"/>
<text text-anchor="middle" x="827.5" y="-147.8" font-family="Times,serif" font-size="14.00" fill="#000000">dfa2scxml.sh</text>
</g>
<!-- dfa4 -->
<g id="node10" class="node">
<title>dfa4</title>
<polygon fill="none" stroke="#000000" points="773,-64 693,-64 693,-28 773,-28 773,-64"/>
<text text-anchor="start" x="701" y="-43.3" font-family="Times,serif" font-style="italic" font-size="14.00" fill="#000000">S</text>
<text text-anchor="start" x="708" y="-43.3" font-family="Times,serif" font-size="14.00" fill="#000000">_dfa3.xml</text>
</g>
<!-- dfa3&#45;&gt;dfa4 -->
<g id="edge9" class="edge">
<title>dfa3&#45;&gt;dfa4</title>
<path fill="none" stroke="#000000" d="M733,-99.5867C733,-91.9407 733,-82.8916 733,-74.4274"/>
<polygon fill="#000000" stroke="#000000" points="736.5001,-74.1686 733,-64.1686 729.5001,-74.1687 736.5001,-74.1686"/>
<text text-anchor="start" x="685.5" y="-79.3" font-family="Times,serif" font-size="14.00" fill="#000000">(</text>
<text text-anchor="start" x="690.5" y="-79.3" font-family="Times,serif" font-style="italic" font-size="14.00" fill="#000000">postprocess</text>
<text text-anchor="start" x="754.5" y="-79.3" font-family="Times,serif" font-size="14.00" fill="#000000">)</text>
</g>
<!-- dfa4&#45;&gt;scxml -->
<g id="edge10" class="edge">
<title>dfa4&#45;&gt;scxml</title>
<path fill="none" stroke="#000000" d="M773.0089,-46C804.3573,-46 847.7781,-46 879.2007,-46"/>
<polygon fill="#000000" stroke="#000000" points="879.3623,-49.5001 889.3623,-46 879.3623,-42.5001 879.3623,-49.5001"/>
<text text-anchor="start" x="809" y="-50.8" font-family="Times,serif" font-size="14.00" fill="#000000">(</text>
<text text-anchor="start" x="814" y="-50.8" font-family="Times,serif" font-style="italic" font-size="14.00" fill="#000000">print</text>
<text text-anchor="start" x="841" y="-50.8" font-family="Times,serif" font-size="14.00" fill="#000000">)</text>
</g>
</g>
</svg>
