<?xml version="1.0" encoding="UTF-8" standalone="no"?>
<!DOCTYPE svg PUBLIC "-//W3C//DTD SVG 1.1//EN"
 "http://www.w3.org/Graphics/SVG/1.1/DTD/svg11.dtd">
<!-- Generated by graphviz version 2.40.1 (20161225.0304)
 -->
<!-- Title: flow Pages: 1 -->
<svg width="971pt" height="326pt"
 viewBox="0.00 0.00 971.00 326.00" xmlns="http://www.w3.org/2000/svg" xmlns:xlink="http://www.w3.org/1999/xlink">
<g id="graph0" class="graph" transform="scale(1 1) rotate(0) translate(4 322)">
<title>flow</title>
<polygon fill="#ffffff" stroke="transparent" points="-4,4 -4,-322 967,-322 967,4 -4,4"/>
<!-- rules -->
<g id="node1" class="node">
<title>rules</title>
<polygon fill="none" stroke="#000000" points="56,-224 0,-224 0,-188 56,-188 56,-224"/>
<text text-anchor="start" x="8" y="-203.3" font-family="Times,serif" font-style="italic" font-size="14.00" fill="#000000">P</text>
<text text-anchor="start" x="17" y="-203.3" font-family="Times,serif" font-size="14.00" fill="#000000">.rules</text>
</g>
<!-- spec -->
<g id="node2" class="node">
<title>spec</title>
<polygon fill="none" stroke="#000000" points="186,-315 132,-315 132,-279 186,-279 186,-315"/>
<text text-anchor="start" x="140.5" y="-294.3" font-family="Times,serif" font-style="italic" font-size="14.00" fill="#000000">P</text>
<text text-anchor="start" x="149.5" y="-294.3" font-family="Times,serif" font-size="14.00" fill="#000000">.spec</text>
</g>
<!-- rules&#45;&gt;spec -->
<g id="edge1" class="edge">
<title>rules&#45;&gt;spec</title>
<path fill="none" stroke="#000000" d="M46.5404,-224.0322C54.6601,-231.5239 64.4904,-240.0685 74,-247 89.3822,-258.212 107.4357,-269.116 122.9388,-277.8648"/>
<polygon fill="#000000" stroke="#000000" points="121.2918,-280.9536 131.7327,-282.753 124.6927,-274.8353 121.2918,-280.9536"/>
<text text-anchor="middle" x="94" y="-274.8" font-family="Times,serif" font-size="14.00" fill="#000000">rulespp</text>
</g>
<!-- rules_xml -->
<g id="node3" class="node">
<title>rules_xml</title>
<polygon fill="none" stroke="#000000" points="186,-258 132,-258 132,-222 186,-222 186,-258"/>
<text text-anchor="start" x="141.5" y="-237.3" font-family="Times,serif" font-style="italic" font-size="14.00" fill="#000000">P</text>
<text text-anchor="start" x="150.5" y="-237.3" font-family="Times,serif" font-size="14.00" fill="#000000">.xml</text>
</g>
<!-- rules&#45;&gt;rules_xml -->
<g id="edge2" class="edge">
<title>rules&#45;&gt;rules_xml</title>
<path fill="none" stroke="#000000" d="M56.1028,-213.2939C75.3559,-218.2908 101.092,-224.9704 122.0089,-230.3993"/>
<polygon fill="#000000" stroke="#000000" points="121.282,-233.8265 131.8406,-232.951 123.0405,-227.051 121.282,-233.8265"/>
<text text-anchor="middle" x="94" y="-231.8" font-family="Times,serif" font-size="14.00" fill="#000000">rulespp</text>
</g>
<!-- dfa2 -->
<g id="node8" class="node">
<title>dfa2</title>
<polygon fill="none" stroke="#000000" points="773.5,-208 698.5,-208 698.5,-172 773.5,-172 773.5,-208"/>
<text text-anchor="start" x="706.5" y="-187.3" font-family="Times,serif" font-style="italic" font-size="14.00" fill="#000000">P</text>
<text text-anchor="start" x="715.5" y="-187.3" font-family="Times,serif" font-size="14.00" fill="#000000">_dfa.xml</text>
</g>
<!-- rules&#45;&gt;dfa2 -->
<g id="edge14" class="edge">
<title>rules&#45;&gt;dfa2</title>
<path fill="none" stroke="#000000" stroke-dasharray="1,5" d="M56.2436,-200.5385C82.6923,-195.9034 123.3717,-190 159,-190 159,-190 159,-190 568,-190 608.5736,-190 654.659,-190 688.2855,-190"/>
<polygon fill="#000000" stroke="#000000" points="688.3015,-193.5001 698.3015,-190 688.3014,-186.5001 688.3015,-193.5001"/>
<text text-anchor="middle" x="303.5" y="-193.8" font-family="Times,serif" font-size="14.00" fill="#000000">rules2dfa.sh</text>
</g>
<!-- scxml -->
<g id="node12" class="node">
<title>scxml</title>
<polygon fill="none" stroke="#000000" points="955.5,-64 893.5,-64 893.5,-28 955.5,-28 955.5,-64"/>
<text text-anchor="start" x="901.5" y="-43.3" font-family="Times,serif" font-style="italic" font-size="14.00" fill="#000000">P</text>
<text text-anchor="start" x="910.5" y="-43.3" font-family="Times,serif" font-size="14.00" fill="#000000">.scxml</text>
</g>
<!-- rules&#45;&gt;scxml -->
<g id="edge13" class="edge">
<title>rules&#45;&gt;scxml</title>
<path fill="none" stroke="#000000" stroke-dasharray="1,5" d="M30.6682,-187.7189C39.1605,-137.3029 70.4199,0 159,0 159,0 159,0 736,0 788.1048,0 846.0607,-16.7932 883.7753,-30.0864"/>
<polygon fill="#000000" stroke="#000000" points="882.7881,-33.451 893.3825,-33.5517 885.1633,-26.8662 882.7881,-33.451"/>
<text text-anchor="middle" x="439" y="-3.8" font-family="Times,serif" font-size="14.00" fill="#000000">rules2scxml.sh</text>
</g>
<!-- ldl -->
<g id="node4" class="node">
<title>ldl</title>
<polygon fill="none" stroke="#000000" points="330.5,-316 276.5,-316 276.5,-280 330.5,-280 330.5,-316"/>
<text text-anchor="start" x="289.5" y="-295.3" font-family="Times,serif" font-style="italic" font-size="14.00" fill="#000000">P</text>
<text text-anchor="start" x="298.5" y="-295.3" font-family="Times,serif" font-size="14.00" fill="#000000">.ldl</text>
</g>
<!-- spec&#45;&gt;ldl -->
<g id="edge3" class="edge">
<title>spec&#45;&gt;ldl</title>
<path fill="none" stroke="#000000" d="M186.1793,-297.1881C208.7844,-297.3445 241.1899,-297.5688 266.218,-297.742"/>
<polygon fill="#000000" stroke="#000000" points="266.4185,-301.2434 276.4425,-297.8128 266.467,-294.2435 266.4185,-301.2434"/>
<text text-anchor="middle" x="228" y="-300.8" font-family="Times,serif" font-size="14.00" fill="#000000">rules2ldl</text>
</g>
<!-- dummy1 -->
<g id="node7" class="node">
<title>dummy1</title>
<ellipse fill="#ffffff" stroke="#ffffff" cx="736" cy="-245" rx="1.8" ry="1.8"/>
</g>
<!-- rules_xml&#45;&gt;dummy1 -->
<g id="edge11" class="edge">
<title>rules_xml&#45;&gt;dummy1</title>
<path fill="none" stroke="#000000" d="M186.056,-240.2345C295.675,-241.1844 702.4388,-244.7092 734.0499,-244.9831"/>
<text text-anchor="start" x="355" y="-247.8" font-family="Times,serif" font-size="14.00" fill="#000000">(</text>
<text text-anchor="start" x="360" y="-247.8" font-family="Times,serif" font-style="italic" font-size="14.00" fill="#000000">event names, code fragments</text>
<text text-anchor="start" x="518" y="-247.8" font-family="Times,serif" font-size="14.00" fill="#000000">)</text>
</g>
<!-- mso -->
<g id="node5" class="node">
<title>mso</title>
<polygon fill="none" stroke="#000000" points="595,-317 541,-317 541,-281 595,-281 595,-317"/>
<text text-anchor="start" x="549.5" y="-296.3" font-family="Times,serif" font-style="italic" font-size="14.00" fill="#000000">P</text>
<text text-anchor="start" x="558.5" y="-296.3" font-family="Times,serif" font-size="14.00" fill="#000000">.mso</text>
</g>
<!-- ldl&#45;&gt;mso -->
<g id="edge4" class="edge">
<title>ldl&#45;&gt;mso</title>
<path fill="none" stroke="#000000" d="M330.8099,-298.1033C378.4504,-298.2834 476.7967,-298.6552 530.6825,-298.8589"/>
<polygon fill="#000000" stroke="#000000" points="530.8255,-302.3594 540.8387,-298.8973 530.852,-295.3594 530.8255,-302.3594"/>
<text text-anchor="middle" x="439" y="-301.8" font-family="Times,serif" font-size="14.00" fill="#000000">ldl2mso</text>
</g>
<!-- dfa -->
<g id="node6" class="node">
<title>dfa</title>
<polygon fill="none" stroke="#000000" points="777,-318 695,-318 695,-282 777,-282 777,-318"/>
<text text-anchor="start" x="703" y="-297.3" font-family="Times,serif" font-style="italic" font-size="14.00" fill="#000000">P</text>
<text text-anchor="start" x="712" y="-297.3" font-family="Times,serif" font-size="14.00" fill="#000000">_dfa0.xml</text>
</g>
<!-- mso&#45;&gt;dfa -->
<g id="edge5" class="edge">
<title>mso&#45;&gt;dfa</title>
<path fill="none" stroke="#000000" d="M595.366,-299.1629C619.4858,-299.3065 655.2667,-299.5194 684.7001,-299.6946"/>
<polygon fill="#000000" stroke="#000000" points="684.7962,-303.1952 694.8169,-299.7549 684.8379,-296.1953 684.7962,-303.1952"/>
<text text-anchor="middle" x="645" y="-302.8" font-family="Times,serif" font-size="14.00" fill="#000000">mso2dfa.sh</text>
</g>
<!-- dfa&#45;&gt;dummy1 -->
<g id="edge6" class="edge">
<title>dfa&#45;&gt;dummy1</title>
<path fill="none" stroke="#000000" d="M736,-281.8323C736,-270.271 736,-258.7097 736,-247.1484"/>
</g>
<!-- dfadot -->
<g id="node11" class="node">
<title>dfadot</title>
<polygon fill="none" stroke="#000000" points="963,-318 886,-318 886,-282 963,-282 963,-318"/>
<text text-anchor="start" x="894" y="-297.3" font-family="Times,serif" font-style="italic" font-size="14.00" fill="#000000">P</text>
<text text-anchor="start" x="903" y="-297.3" font-family="Times,serif" font-size="14.00" fill="#000000">_dfa0.dot</text>
</g>
<!-- dfa&#45;&gt;dfadot -->
<g id="edge12" class="edge">
<title>dfa&#45;&gt;dfadot</title>
<path fill="none" stroke="#000000" d="M777.3671,-300C806.3829,-300 845.2855,-300 875.8007,-300"/>
<polygon fill="#000000" stroke="#000000" points="875.8014,-303.5001 885.8014,-300 875.8014,-296.5001 875.8014,-303.5001"/>
<text text-anchor="middle" x="831.5" y="-303.8" font-family="Times,serif" font-size="14.00" fill="#000000">dfa2dot.sh</text>
</g>
<!-- dummy1&#45;&gt;dfa2 -->
<g id="edge7" class="edge">
<title>dummy1&#45;&gt;dfa2</title>
<path fill="none" stroke="#000000" d="M736,-242.9608C736,-238.7273 736,-228.5146 736,-218.1747"/>
<polygon fill="#000000" stroke="#000000" points="739.5001,-218.009 736,-208.0091 732.5001,-218.0091 739.5001,-218.009"/>
<text text-anchor="start" x="697.5" y="-222.9" font-family="Times,serif" font-size="14.00" fill="#000000">(</text>
<text text-anchor="start" x="702.5" y="-222.9" font-family="Times,serif" font-style="italic" font-size="14.00" fill="#000000">combine</text>
<text text-anchor="start" x="748.5" y="-222.9" font-family="Times,serif" font-size="14.00" fill="#000000">)</text>
</g>
<!-- dfa3 -->
<g id="node9" class="node">
<title>dfa3</title>
<polygon fill="none" stroke="#000000" points="777,-136 695,-136 695,-100 777,-100 777,-136"/>
<text text-anchor="start" x="703" y="-115.3" font-family="Times,serif" font-style="italic" font-size="14.00" fill="#000000">P</text>
<text text-anchor="start" x="712" y="-115.3" font-family="Times,serif" font-size="14.00" fill="#000000">_dfa2.xml</text>
</g>
<!-- dfa2&#45;&gt;dfa3 -->
<g id="edge8" class="edge">
<title>dfa2&#45;&gt;dfa3</title>
<path fill="none" stroke="#000000" d="M736,-171.5867C736,-163.9407 736,-154.8916 736,-146.4274"/>
<polygon fill="#000000" stroke="#000000" points="739.5001,-146.1686 736,-136.1686 732.5001,-146.1687 739.5001,-146.1686"/>
<text text-anchor="middle" x="725.5" y="-150.3" font-family="Times,serif" font-size="14.00" fill="#000000">modelgen &#160;&#160;&#160;&#160;&#160;&#160;&#160;&#160;&#160;</text>
</g>
<!-- dfa2&#45;&gt;scxml -->
<g id="edge15" class="edge">
<title>dfa2&#45;&gt;scxml</title>
<path fill="none" stroke="#000000" stroke-dasharray="1,5" d="M759.8737,-171.7623C793.583,-146.0108 855.1974,-98.942 892.7381,-70.2637"/>
<polygon fill="#000000" stroke="#000000" points="894.9983,-72.9416 900.8202,-64.0896 890.7489,-67.3789 894.9983,-72.9416"/>
<text text-anchor="middle" x="831.5" y="-147.8" font-family="Times,serif" font-size="14.00" fill="#000000">dfa2scxml.sh</text>
</g>
<!-- dfa4 -->
<g id="node10" class="node">
<title>dfa4</title>
<polygon fill="none" stroke="#000000" points="777,-64 695,-64 695,-28 777,-28 777,-64"/>
<text text-anchor="start" x="703" y="-43.3" font-family="Times,serif" font-style="italic" font-size="14.00" fill="#000000">P</text>
<text text-anchor="start" x="712" y="-43.3" font-family="Times,serif" font-size="14.00" fill="#000000">_dfa3.xml</text>
</g>
<!-- dfa3&#45;&gt;dfa4 -->
<g id="edge9" class="edge">
<title>dfa3&#45;&gt;dfa4</title>
<path fill="none" stroke="#000000" d="M736,-99.5867C736,-91.9407 736,-82.8916 736,-74.4274"/>
<polygon fill="#000000" stroke="#000000" points="739.5001,-74.1686 736,-64.1686 732.5001,-74.1687 739.5001,-74.1686"/>
<text text-anchor="start" x="688.5" y="-79.3" font-family="Times,serif" font-size="14.00" fill="#000000">(</text>
<text text-anchor="start" x="693.5" y="-79.3" font-family="Times,serif" font-style="italic" font-size="14.00" fill="#000000">postprocess</text>
<text text-anchor="start" x="757.5" y="-79.3" font-family="Times,serif" font-size="14.00" fill="#000000">)</text>
</g>
<!-- dfa4&#45;&gt;scxml -->
<g id="edge10" class="edge">
<title>dfa4&#45;&gt;scxml</title>
<path fill="none" stroke="#000000" d="M777.3671,-46C808.8171,-46 851.8823,-46 883.2928,-46"/>
<polygon fill="#000000" stroke="#000000" points="883.4647,-49.5001 893.4646,-46 883.4646,-42.5001 883.4647,-49.5001"/>
<text text-anchor="start" x="813" y="-50.8" font-family="Times,serif" font-size="14.00" fill="#000000">(</text>
<text text-anchor="start" x="818" y="-50.8" font-family="Times,serif" font-style="italic" font-size="14.00" fill="#000000">print</text>
<text text-anchor="start" x="845" y="-50.8" font-family="Times,serif" font-size="14.00" fill="#000000">)</text>
</g>
</g>
</svg>
