<?xml version="1.0" encoding="UTF-8" standalone="no"?><svg xmlns="http://www.w3.org/2000/svg" xmlns:xlink="http://www.w3.org/1999/xlink" contentScriptType="application/ecmascript" contentStyleType="text/css" height="316px" preserveAspectRatio="none" style="width:1040px;height:316px;" version="1.1" viewBox="0 0 1040 316" width="1040px" zoomAndPan="magnify"><defs><filter height="300%" id="f5lpzz3i67a91" width="300%" x="-1" y="-1"><feGaussianBlur result="blurOut" stdDeviation="2.0"/><feColorMatrix in="blurOut" result="blurOut2" type="matrix" values="0 0 0 0 0 0 0 0 0 0 0 0 0 0 0 0 0 0 .4 0"/><feOffset dx="4.0" dy="4.0" in="blurOut2" result="blurOut3"/><feBlend in="SourceGraphic" in2="blurOut3" mode="normal"/></filter></defs><g><rect fill="#FEFECE" filter="url(#f5lpzz3i67a91)" height="50" rx="12.5" ry="12.5" style="stroke: #A80036; stroke-width: 1.5;" width="50" x="898" y="8"/><line style="stroke: #A80036; stroke-width: 1.5;" x1="898" x2="948" y1="34.2969" y2="34.2969"/><text fill="#000000" font-family="sans-serif" font-size="14" lengthAdjust="spacingAndGlyphs" textLength="18" x="914" y="25.9951">q9</text><ellipse cx="486.5" cy="281" fill="#000000" filter="url(#f5lpzz3i67a91)" rx="10" ry="10" style="stroke: none; stroke-width: 1.0;"/><ellipse cx="1019" cy="33" fill="none" filter="url(#f5lpzz3i67a91)" rx="10" ry="10" style="stroke: #000000; stroke-width: 1.0;"/><ellipse cx="1019.5" cy="33.5" fill="#000000" rx="6" ry="6" style="stroke: none; stroke-width: 1.0;"/><rect fill="#FEFECE" filter="url(#f5lpzz3i67a91)" height="50" rx="12.5" ry="12.5" style="stroke: #A80036; stroke-width: 1.5;" width="50" x="706" y="255"/><line style="stroke: #A80036; stroke-width: 1.5;" x1="706" x2="756" y1="281.2969" y2="281.2969"/><text fill="#000000" font-family="sans-serif" font-size="14" lengthAdjust="spacingAndGlyphs" textLength="18" x="722" y="272.9951">q2</text><rect fill="#FEFECE" filter="url(#f5lpzz3i67a91)" height="50" rx="12.5" ry="12.5" style="stroke: #A80036; stroke-width: 1.5;" width="50" x="6" y="90"/><line style="stroke: #A80036; stroke-width: 1.5;" x1="6" x2="56" y1="116.2969" y2="116.2969"/><text fill="#000000" font-family="sans-serif" font-size="14" lengthAdjust="spacingAndGlyphs" textLength="18" x="22" y="107.9951">q5</text><rect fill="#FEFECE" filter="url(#f5lpzz3i67a91)" height="50" rx="12.5" ry="12.5" style="stroke: #A80036; stroke-width: 1.5;" width="50" x="706" y="8"/><line style="stroke: #A80036; stroke-width: 1.5;" x1="706" x2="756" y1="34.2969" y2="34.2969"/><text fill="#000000" font-family="sans-serif" font-size="14" lengthAdjust="spacingAndGlyphs" textLength="18" x="722" y="25.9951">q7</text><rect fill="#FEFECE" filter="url(#f5lpzz3i67a91)" height="50" rx="12.5" ry="12.5" style="stroke: #A80036; stroke-width: 1.5;" width="50" x="706" y="98"/><line style="stroke: #A80036; stroke-width: 1.5;" x1="706" x2="756" y1="124.2969" y2="124.2969"/><text fill="#000000" font-family="sans-serif" font-size="14" lengthAdjust="spacingAndGlyphs" textLength="27" x="717.5" y="115.9951">q10</text><rect fill="#FEFECE" filter="url(#f5lpzz3i67a91)" height="50" rx="12.5" ry="12.5" style="stroke: #A80036; stroke-width: 1.5;" width="50" x="461.5" y="89"/><line style="stroke: #A80036; stroke-width: 1.5;" x1="461.5" x2="511.5" y1="115.2969" y2="115.2969"/><text fill="#000000" font-family="sans-serif" font-size="14" lengthAdjust="spacingAndGlyphs" textLength="18" x="477.5" y="106.9951">q8</text><rect fill="#FEFECE" filter="url(#f5lpzz3i67a91)" height="50" rx="12.5" ry="12.5" style="stroke: #A80036; stroke-width: 1.5;" width="50" x="229" y="90"/><line style="stroke: #A80036; stroke-width: 1.5;" x1="229" x2="279" y1="116.2969" y2="116.2969"/><text fill="#000000" font-family="sans-serif" font-size="14" lengthAdjust="spacingAndGlyphs" textLength="18" x="245" y="107.9951">q6</text><rect fill="#FEFECE" filter="url(#f5lpzz3i67a91)" height="50" rx="12.5" ry="12.5" style="stroke: #A80036; stroke-width: 1.5;" width="50" x="898" y="176"/><line style="stroke: #A80036; stroke-width: 1.5;" x1="898" x2="948" y1="202.2969" y2="202.2969"/><text fill="#000000" font-family="sans-serif" font-size="14" lengthAdjust="spacingAndGlyphs" textLength="18" x="914" y="193.9951">q4</text><!--link q2 to q4--><path d="M756.075,276.5452 C784.3971,271.9453 831.315,262.1874 868,244 C876.8876,239.5938 885.7139,233.6099 893.6098,227.5075 " fill="none" id="q2-q4" style="stroke: #A80036; stroke-width: 1.0;"/><polygon fill="#A80036" points="897.8951,224.1144,888.3561,226.5653,893.9751,227.2182,893.3222,232.8373,897.8951,224.1144" style="stroke: #A80036; stroke-width: 1.0;"/><text fill="#000000" font-family="sans-serif" font-size="13" lengthAdjust="spacingAndGlyphs" textLength="37" x="808.5" y="240.0669">(1)init</text><!--link q5 to q6--><path d="M56.1475,115 C97.4128,115 179.3369,115 223.7229,115 " fill="none" id="q5-q6" style="stroke: #A80036; stroke-width: 1.0;"/><polygon fill="#A80036" points="228.9444,115,219.9444,111,223.9444,115,219.9444,119,228.9444,115" style="stroke: #A80036; stroke-width: 1.0;"/><text fill="#000000" font-family="sans-serif" font-size="13" lengthAdjust="spacingAndGlyphs" textLength="111" x="87" y="111.0669">(1)_not_knockout</text><!--link q5 to q7--><path d="M56.1369,101.6471 C65.308,97.2973 75.908,92.8575 86,90 C147.6341,72.5487 165.2718,78.4826 229,72 C407.3495,53.8577 622.1055,39.7547 700.4846,34.8619 " fill="none" id="q5-q7" style="stroke: #A80036; stroke-width: 1.0;"/><polygon fill="#A80036" points="705.8898,34.5256,696.6588,31.0921,700.8994,34.836,697.1555,39.0767,705.8898,34.5256" style="stroke: #A80036; stroke-width: 1.0;"/><text fill="#000000" font-family="sans-serif" font-size="13" lengthAdjust="spacingAndGlyphs" textLength="83" x="320.5" y="52.0669">(2)_knockout</text><!--link q7 to q9--><path d="M756.1006,33 C791.1725,33 854.7687,33 892.5177,33 " fill="none" id="q7-q9" style="stroke: #A80036; stroke-width: 1.0;"/><polygon fill="#A80036" points="897.8932,33,888.8932,29,892.8932,33,888.8932,37,897.8932,33" style="stroke: #A80036; stroke-width: 1.0;"/><text fill="#000000" font-family="sans-serif" font-size="13" lengthAdjust="spacingAndGlyphs" textLength="68" x="793" y="29.0669">(1)_accept</text><!--link q10 to q4--><path d="M756.2352,131.9024 C783.9029,141.8191 829.4897,158.6191 868,175 C876.2096,178.492 884.9894,182.5103 893.0695,186.3273 " fill="none" id="q10-q4" style="stroke: #A80036; stroke-width: 1.0;"/><polygon fill="#A80036" points="897.9987,188.6714,891.5889,181.1938,893.4833,186.524,888.1531,188.4184,897.9987,188.6714" style="stroke: #A80036; stroke-width: 1.0;"/><text fill="#000000" font-family="sans-serif" font-size="13" lengthAdjust="spacingAndGlyphs" textLength="80" x="787" y="140.0669">(1)day_open</text><!--link q8 to q7--><path d="M511.6374,111.1195 C548.8169,106.2129 620.0936,94.3097 676,70 C684.7265,66.2054 693.5538,61.002 701.5063,55.6957 " fill="none" id="q8-q7" style="stroke: #A80036; stroke-width: 1.0;"/><polygon fill="#A80036" points="705.8281,52.7455,696.1397,54.516,701.6985,55.5645,700.6501,61.1233,705.8281,52.7455" style="stroke: #A80036; stroke-width: 1.0;"/><text fill="#000000" font-family="sans-serif" font-size="13" lengthAdjust="spacingAndGlyphs" textLength="88" x="573" y="66.0669">(1)_terminate</text><!--link q8 to q10--><path d="M511.8285,119.7522 C525.4346,122.5509 542.5442,125.6063 558,127 C610.2325,131.7098 623.5901,128.9033 676,127 C683.9291,126.712 692.4885,126.1913 700.4391,125.6187 " fill="none" id="q8-q10" style="stroke: #A80036; stroke-width: 1.0;"/><polygon fill="#A80036" points="705.8309,125.2162,696.5581,121.8974,700.8448,125.5885,697.1537,129.8752,705.8309,125.2162" style="stroke: #A80036; stroke-width: 1.0;"/><text fill="#000000" font-family="sans-serif" font-size="13" lengthAdjust="spacingAndGlyphs" textLength="116" x="559" y="123.0669">(2)_not_terminate</text><!--link q6 to q8--><path d="M279.3242,114.8911 C322.3879,114.7059 409.7095,114.3303 456.0381,114.131 " fill="none" id="q6-q8" style="stroke: #A80036; stroke-width: 1.0;"/><polygon fill="#A80036" points="461.2071,114.1088,452.1898,110.1479,456.2071,114.1305,452.2246,118.1478,461.2071,114.1088" style="stroke: #A80036; stroke-width: 1.0;"/><text fill="#000000" font-family="sans-serif" font-size="13" lengthAdjust="spacingAndGlyphs" textLength="95" x="314.5" y="111.0669">(1)_over_strike</text><!--link q6 to q8--><path d="M279.2348,129.195 C288.3269,133.5649 298.8515,137.8017 309,140 C355.0433,149.9734 368.6034,148.1739 415,140 C429.0101,137.5318 443.8873,132.5383 456.4222,127.5814 " fill="none" id="q6-q8" style="stroke: #A80036; stroke-width: 1.0;"/><polygon fill="#A80036" points="461.2826,125.6153,451.4394,125.2822,456.6475,127.4903,454.4394,132.6984,461.2826,125.6153" style="stroke: #A80036; stroke-width: 1.0;"/><text fill="#000000" font-family="sans-serif" font-size="13" lengthAdjust="spacingAndGlyphs" textLength="104" x="310" y="136.0669">(2)_under_strike</text><!--link q4 to q5--><path d="M897.8402,201 C861.155,201 790.8333,201 731,201 C254,201 254,201 254,201 C180.5345,201 102.0237,159.8657 60.5853,134.4937 " fill="none" id="q4-q5" style="stroke: #A80036; stroke-width: 1.0;"/><polygon fill="#A80036" points="56.2052,131.7858,61.7567,139.9209,60.458,134.4152,65.9638,133.1165,56.2052,131.7858" style="stroke: #A80036; stroke-width: 1.0;"/><text fill="#000000" font-family="sans-serif" font-size="13" lengthAdjust="spacingAndGlyphs" textLength="81" x="446" y="197.0669">(1)day_close</text><!--link *start to q2--><path d="M496.6946,280.9583 C531.3658,280.8165 645.6205,280.3492 700.7355,280.1238 " fill="none" id="*start-q2" style="stroke: #A80036; stroke-width: 1.0;"/><polygon fill="#A80036" points="705.88,280.1027,696.8636,276.1398,700.88,280.1233,696.8965,284.1397,705.88,280.1027" style="stroke: #A80036; stroke-width: 1.0;"/><!--link q9 to *end--><path d="M948.2229,33 C965.8366,33 988.7774,33 1003.6928,33 " fill="none" id="q9-*end" style="stroke: #A80036; stroke-width: 1.0;"/><polygon fill="#A80036" points="1008.8002,33,999.8002,29,1003.8002,33,999.8002,37,1008.8002,33" style="stroke: #A80036; stroke-width: 1.0;"/><!--
@startuml 
left to right direction
state q2
state q5
state q7
state q10
state q8
state q6
state q4
q2 - -> q4:(1)init
q5 - -> q6:(1)_not_knockout
q5 - -> q7:(2)_knockout
q7 - -> q9:(1)_accept
q10 - -> q4:(1)day_open
q8 - -> q7:(1)_terminate
q8 - -> q10:(2)_not_terminate
q6 - -> q8:(1)_over_strike
q6 - -> q8:(2)_under_strike
q4 - -> q5:(1)day_close
[*] - -> q2
state q9
q9 - -> [*]
state q2 {
}
state q5 {
}
state q7 {
}
state q10 {
}
state q8 {
}
state q6 {
}
state q4 {
}
@enduml

PlantUML version 1.2017.15(Tue Jul 04 01:45:34 JST 2017)
(GPL source distribution)
Java Runtime: OpenJDK Runtime Environment
JVM: OpenJDK 64-Bit Server VM
Java Version: 1.8.0_181-8u181-b13-0ubuntu0.18.04.1-b13
Operating System: Linux
OS Version: 4.15.0-34-generic
Default Encoding: UTF-8
Language: en
Country: US
--></g></svg>