<?xml version="1.0" encoding="UTF-8" standalone="no"?><svg xmlns="http://www.w3.org/2000/svg" xmlns:xlink="http://www.w3.org/1999/xlink" contentScriptType="application/ecmascript" contentStyleType="text/css" height="225px" preserveAspectRatio="none" style="width:600px;height:225px;" version="1.1" viewBox="0 0 600 225" width="600px" zoomAndPan="magnify"><defs><filter height="300%" id="fpxxnl016y94d" width="300%" x="-1" y="-1"><feGaussianBlur result="blurOut" stdDeviation="2.0"/><feColorMatrix in="blurOut" result="blurOut2" type="matrix" values="0 0 0 0 0 0 0 0 0 0 0 0 0 0 0 0 0 0 .4 0"/><feOffset dx="4.0" dy="4.0" in="blurOut2" result="blurOut3"/><feBlend in="SourceGraphic" in2="blurOut3" mode="normal"/></filter></defs><g><rect fill="#FEFECE" filter="url(#fpxxnl016y94d)" height="50" rx="12.5" ry="12.5" style="stroke: #A80036; stroke-width: 1.5;" width="50" x="458" y="56"/><line style="stroke: #A80036; stroke-width: 1.5;" x1="458" x2="508" y1="82.2969" y2="82.2969"/><text fill="#000000" font-family="sans-serif" font-size="14" lengthAdjust="spacingAndGlyphs" textLength="18" x="474" y="73.9951">q7</text><ellipse cx="31" cy="204" fill="#000000" filter="url(#fpxxnl016y94d)" rx="10" ry="10" style="stroke: none; stroke-width: 1.0;"/><ellipse cx="579" cy="81" fill="none" filter="url(#fpxxnl016y94d)" rx="10" ry="10" style="stroke: #000000; stroke-width: 1.0;"/><ellipse cx="579.5" cy="81.5" fill="#000000" rx="6" ry="6" style="stroke: none; stroke-width: 1.0;"/><rect fill="#FEFECE" filter="url(#fpxxnl016y94d)" height="50" rx="12.5" ry="12.5" style="stroke: #A80036; stroke-width: 1.5;" width="50" x="248" y="8"/><line style="stroke: #A80036; stroke-width: 1.5;" x1="248" x2="298" y1="34.2969" y2="34.2969"/><text fill="#000000" font-family="sans-serif" font-size="14" lengthAdjust="spacingAndGlyphs" textLength="18" x="264" y="25.9951">q6</text><rect fill="#FEFECE" filter="url(#fpxxnl016y94d)" height="50" rx="12.5" ry="12.5" style="stroke: #A80036; stroke-width: 1.5;" width="50" x="6" y="64"/><line style="stroke: #A80036; stroke-width: 1.5;" x1="6" x2="56" y1="90.2969" y2="90.2969"/><text fill="#000000" font-family="sans-serif" font-size="14" lengthAdjust="spacingAndGlyphs" textLength="18" x="22" y="81.9951">q4</text><rect fill="#FEFECE" filter="url(#fpxxnl016y94d)" height="50" rx="12.5" ry="12.5" style="stroke: #A80036; stroke-width: 1.5;" width="50" x="168" y="120"/><line style="stroke: #A80036; stroke-width: 1.5;" x1="168" x2="218" y1="146.2969" y2="146.2969"/><text fill="#000000" font-family="sans-serif" font-size="14" lengthAdjust="spacingAndGlyphs" textLength="18" x="184" y="137.9951">q2</text><rect fill="#FEFECE" filter="url(#fpxxnl016y94d)" height="50" rx="12.5" ry="12.5" style="stroke: #A80036; stroke-width: 1.5;" width="50" x="328" y="106"/><line style="stroke: #A80036; stroke-width: 1.5;" x1="328" x2="378" y1="132.2969" y2="132.2969"/><text fill="#000000" font-family="sans-serif" font-size="14" lengthAdjust="spacingAndGlyphs" textLength="18" x="344" y="123.9951">q5</text><!--link q6 to q7--><path d="M298.3309,38.7899 C337.222,47.6793 411.4879,64.6544 453.0094,74.145 " fill="none" id="q6-q7" style="stroke: #A80036; stroke-width: 1.0;"/><polygon fill="#A80036" points="457.9061,75.2643,450.0237,69.3594,453.0318,74.1502,448.2411,77.1583,457.9061,75.2643" style="stroke: #A80036; stroke-width: 1.0;"/><text fill="#000000" font-family="sans-serif" font-size="13" lengthAdjust="spacingAndGlyphs" textLength="18" x="344" y="43.0669">(1)</text><!--link q4 to q2--><path d="M56.3125,97.75 C85.2013,107.7363 132.4071,124.0543 163.0883,134.6602 " fill="none" id="q4-q2" style="stroke: #A80036; stroke-width: 1.0;"/><polygon fill="#A80036" points="167.8652,136.3114,160.666,129.5905,163.1396,134.6778,158.0522,137.1514,167.8652,136.3114" style="stroke: #A80036; stroke-width: 1.0;"/><text fill="#000000" font-family="sans-serif" font-size="13" lengthAdjust="spacingAndGlyphs" textLength="50" x="87" y="105.0669">(1)pong</text><!--link q2 to q4--><path d="M167.583,152.8019 C145.1113,158.2512 111.9625,162.6745 86,151 C70.7906,144.1608 58.0796,130.8065 48.7223,118.238 " fill="none" id="q2-q4" style="stroke: #A80036; stroke-width: 1.0;"/><polygon fill="#A80036" points="45.6788,114.0163,47.6975,123.656,48.6029,118.0721,54.1868,118.9775,45.6788,114.0163" style="stroke: #A80036; stroke-width: 1.0;"/><text fill="#000000" font-family="sans-serif" font-size="13" lengthAdjust="spacingAndGlyphs" textLength="45" x="89.5" y="147.0669">(1)ping</text><!--link q4 to q6--><path d="M56.4408,83.1129 C101.402,72.7086 194.6924,51.1208 242.8232,39.9831 " fill="none" id="q4-q6" style="stroke: #A80036; stroke-width: 1.0;"/><polygon fill="#A80036" points="247.9,38.8083,238.2299,36.9404,243.0287,39.9356,240.0335,44.7344,247.9,38.8083" style="stroke: #A80036; stroke-width: 1.0;"/><text fill="#000000" font-family="sans-serif" font-size="13" lengthAdjust="spacingAndGlyphs" textLength="42" x="91" y="61.0669">(2)quit</text><!--link q2 to q5--><path d="M218.3525,142.7817 C246.6737,140.3036 292.4978,136.2939 322.6896,133.6522 " fill="none" id="q2-q5" style="stroke: #A80036; stroke-width: 1.0;"/><polygon fill="#A80036" points="327.7661,133.208,318.4517,130.0078,322.7851,133.6439,319.149,137.9773,327.7661,133.208" style="stroke: #A80036; stroke-width: 1.0;"/><text fill="#000000" font-family="sans-serif" font-size="13" lengthAdjust="spacingAndGlyphs" textLength="42" x="252" y="132.0669">(2)quit</text><!--link q5 to q7--><path d="M378.0653,121.3595 C399.4189,113.1466 430.1606,101.3228 452.854,92.5946 " fill="none" id="q5-q7" style="stroke: #A80036; stroke-width: 1.0;"/><polygon fill="#A80036" points="457.5681,90.7815,447.7321,90.2791,452.9014,92.5765,450.604,97.7458,457.5681,90.7815" style="stroke: #A80036; stroke-width: 1.0;"/><text fill="#000000" font-family="sans-serif" font-size="13" lengthAdjust="spacingAndGlyphs" textLength="18" x="409" y="100.0669">(1)</text><!--link *start to q2--><path d="M40.4737,200.7194 C59.1701,194.2265 102.1146,179.221 138,166 C146.1012,163.0153 154.8442,159.714 162.9235,156.6299 " fill="none" id="*start-q2" style="stroke: #A80036; stroke-width: 1.0;"/><polygon fill="#A80036" points="167.8566,154.7425,158.0215,154.2227,163.1867,156.5292,160.8802,161.6945,167.8566,154.7425" style="stroke: #A80036; stroke-width: 1.0;"/><!--link q7 to *end--><path d="M508.2229,81 C525.8366,81 548.7774,81 563.6928,81 " fill="none" id="q7-*end" style="stroke: #A80036; stroke-width: 1.0;"/><polygon fill="#A80036" points="568.8002,81,559.8002,77,563.8002,81,559.8002,85,568.8002,81" style="stroke: #A80036; stroke-width: 1.0;"/><!--
@startuml 
left to right direction
state q6
state q4
state q2
state q5
q6 - -> q7:(1) 
q4 - -> q2:(1)pong
q4 - -> q6:(2)quit
q2 - -> q4:(1)ping
q2 - -> q5:(2)quit
q5 - -> q7:(1) 
[*] - -> q2
state q7
q7 - -> [*]
state q6 {
}
state q4 {
}
state q2 {
}
state q5 {
}
@enduml

PlantUML version 1.2019.05(Sun Apr 21 01:45:36 JST 2019)
(GPL source distribution)
Java Runtime: OpenJDK Runtime Environment
JVM: OpenJDK 64-Bit Server VM
Java Version: 11.0.4+11-post-Ubuntu-1ubuntu218.04.3
Operating System: Linux
OS Version: 4.15.0-58-generic
Default Encoding: UTF-8
Language: en
Country: US
--></g></svg>