<?xml version="1.0" encoding="UTF-8" standalone="no"?><svg xmlns="http://www.w3.org/2000/svg" xmlns:xlink="http://www.w3.org/1999/xlink" contentScriptType="application/ecmascript" contentStyleType="text/css" height="339px" preserveAspectRatio="none" style="width:221px;height:339px;" version="1.1" viewBox="0 0 221 339" width="221px" zoomAndPan="magnify"><defs><filter height="300%" id="f8nd9ifdq3l71" width="300%" x="-1" y="-1"><feGaussianBlur result="blurOut" stdDeviation="2.0"/><feColorMatrix in="blurOut" result="blurOut2" type="matrix" values="0 0 0 0 0 0 0 0 0 0 0 0 0 0 0 0 0 0 .4 0"/><feOffset dx="4.0" dy="4.0" in="blurOut2" result="blurOut3"/><feBlend in="SourceGraphic" in2="blurOut3" mode="normal"/></filter></defs><g><line style="stroke: #A80036; stroke-width: 1.0; stroke-dasharray: 5.0,5.0;" x1="36" x2="36" y1="86.2969" y2="251.9609"/><line style="stroke: #A80036; stroke-width: 1.0; stroke-dasharray: 5.0,5.0;" x1="109" x2="109" y1="86.2969" y2="251.9609"/><line style="stroke: #A80036; stroke-width: 1.0; stroke-dasharray: 5.0,5.0;" x1="187" x2="187" y1="86.2969" y2="251.9609"/><text fill="#000000" font-family="sans-serif" font-size="14" lengthAdjust="spacingAndGlyphs" textLength="50" x="8" y="82.9951">initiator</text><ellipse cx="36" cy="13" fill="#FEFECE" filter="url(#f8nd9ifdq3l71)" rx="8" ry="8" style="stroke: #A80036; stroke-width: 2.0;"/><path d="M36,21 L36,48 M23,29 L49,29 M36,48 L23,63 M36,48 L49,63 " fill="#FEFECE" filter="url(#f8nd9ifdq3l71)" style="stroke: #A80036; stroke-width: 2.0;"/><text fill="#000000" font-family="sans-serif" font-size="14" lengthAdjust="spacingAndGlyphs" textLength="50" x="8" y="263.9561">initiator</text><ellipse cx="36" cy="277.2578" fill="#FEFECE" filter="url(#f8nd9ifdq3l71)" rx="8" ry="8" style="stroke: #A80036; stroke-width: 2.0;"/><path d="M36,285.2578 L36,312.2578 M23,293.2578 L49,293.2578 M36,312.2578 L23,327.2578 M36,312.2578 L49,327.2578 " fill="#FEFECE" filter="url(#f8nd9ifdq3l71)" style="stroke: #A80036; stroke-width: 2.0;"/><rect fill="#FEFECE" filter="url(#f8nd9ifdq3l71)" height="30.2969" style="stroke: #A80036; stroke-width: 1.5;" width="44" x="85" y="51"/><text fill="#000000" font-family="sans-serif" font-size="14" lengthAdjust="spacingAndGlyphs" textLength="30" x="92" y="70.9951">ping</text><rect fill="#FEFECE" filter="url(#f8nd9ifdq3l71)" height="30.2969" style="stroke: #A80036; stroke-width: 1.5;" width="44" x="85" y="250.9609"/><text fill="#000000" font-family="sans-serif" font-size="14" lengthAdjust="spacingAndGlyphs" textLength="30" x="92" y="270.9561">ping</text><rect fill="#FEFECE" filter="url(#f8nd9ifdq3l71)" height="30.2969" style="stroke: #A80036; stroke-width: 1.5;" width="50" x="160" y="51"/><text fill="#000000" font-family="sans-serif" font-size="14" lengthAdjust="spacingAndGlyphs" textLength="36" x="167" y="70.9951">pong</text><rect fill="#FEFECE" filter="url(#f8nd9ifdq3l71)" height="30.2969" style="stroke: #A80036; stroke-width: 1.5;" width="50" x="160" y="250.9609"/><text fill="#000000" font-family="sans-serif" font-size="14" lengthAdjust="spacingAndGlyphs" textLength="36" x="167" y="270.9561">pong</text><polygon fill="#A80036" points="97,113.2969,107,117.2969,97,121.2969,101,117.2969" style="stroke: #A80036; stroke-width: 1.0;"/><line style="stroke: #A80036; stroke-width: 1.0;" x1="36" x2="103" y1="117.2969" y2="117.2969"/><text fill="#000000" font-family="sans-serif" font-size="13" lengthAdjust="spacingAndGlyphs" textLength="49" x="43" y="112.3638">ping (3)</text><polygon fill="#A80036" points="175,142.4297,185,146.4297,175,150.4297,179,146.4297" style="stroke: #A80036; stroke-width: 1.0;"/><line style="stroke: #A80036; stroke-width: 1.0;" x1="109" x2="181" y1="146.4297" y2="146.4297"/><text fill="#000000" font-family="sans-serif" font-size="13" lengthAdjust="spacingAndGlyphs" textLength="54" x="116" y="141.4966">pong (2)</text><polygon fill="#A80036" points="120,171.5625,110,175.5625,120,179.5625,116,175.5625" style="stroke: #A80036; stroke-width: 1.0;"/><line style="stroke: #A80036; stroke-width: 1.0;" x1="114" x2="186" y1="175.5625" y2="175.5625"/><text fill="#000000" font-family="sans-serif" font-size="13" lengthAdjust="spacingAndGlyphs" textLength="49" x="126" y="170.6294">ping (1)</text><polygon fill="#A80036" points="175,200.6953,185,204.6953,175,208.6953,179,204.6953" style="stroke: #A80036; stroke-width: 1.0;"/><line style="stroke: #A80036; stroke-width: 1.0;" x1="109" x2="181" y1="204.6953" y2="204.6953"/><text fill="#000000" font-family="sans-serif" font-size="13" lengthAdjust="spacingAndGlyphs" textLength="54" x="116" y="199.7622">pong (0)</text><polygon fill="#A80036" points="120,229.8281,110,233.8281,120,237.8281,116,233.8281" style="stroke: #A80036; stroke-width: 1.0;"/><line style="stroke: #A80036; stroke-width: 1.0;" x1="114" x2="186" y1="233.8281" y2="233.8281"/><text fill="#000000" font-family="sans-serif" font-size="13" lengthAdjust="spacingAndGlyphs" textLength="24" x="126" y="228.895">quit</text><!--
@startuml
actor initiator
participant ping
participant pong

initiator -> ping : ping (3)
ping -> pong : pong (2)
pong -> ping : ping (1)
ping -> pong : pong (0)
pong -> ping : quit

@enduml

PlantUML version 1.2017.15(Tue Jul 04 01:45:34 JST 2017)
(GPL source distribution)
Java Runtime: OpenJDK Runtime Environment
JVM: OpenJDK 64-Bit Server VM
Java Version: 1.8.0_191-8u191-b12-2ubuntu0.18.04.1-b12
Operating System: Linux
OS Version: 4.15.0-46-generic
Default Encoding: UTF-8
Language: en
Country: US
--></g></svg>