<?xml version="1.0" encoding="UTF-8" standalone="no"?><svg xmlns="http://www.w3.org/2000/svg" xmlns:xlink="http://www.w3.org/1999/xlink" contentScriptType="application/ecmascript" contentStyleType="text/css" height="564px" preserveAspectRatio="none" style="width:296px;height:564px;" version="1.1" viewBox="0 0 296 564" width="296px" zoomAndPan="magnify"><defs><filter height="300%" id="f18biryev84a7t" width="300%" x="-1" y="-1"><feGaussianBlur result="blurOut" stdDeviation="2.0"/><feColorMatrix in="blurOut" result="blurOut2" type="matrix" values="0 0 0 0 0 0 0 0 0 0 0 0 0 0 0 0 0 0 .4 0"/><feOffset dx="4.0" dy="4.0" in="blurOut2" result="blurOut3"/><feBlend in="SourceGraphic" in2="blurOut3" mode="normal"/></filter></defs><g><rect fill="#FEFECE" filter="url(#f18biryev84a7t)" height="50" rx="12.5" ry="12.5" style="stroke: #A80036; stroke-width: 1.5;" width="50" x="36" y="422"/><line style="stroke: #A80036; stroke-width: 1.5;" x1="36" x2="86" y1="448.2969" y2="448.2969"/><text fill="#000000" font-family="sans-serif" font-size="14" lengthAdjust="spacingAndGlyphs" textLength="18" x="52" y="439.9951">q7</text><ellipse cx="275" cy="33" fill="#000000" filter="url(#f18biryev84a7t)" rx="10" ry="10" style="stroke: none; stroke-width: 1.0;"/><ellipse cx="61" cy="543" fill="none" filter="url(#f18biryev84a7t)" rx="10" ry="10" style="stroke: #000000; stroke-width: 1.0;"/><ellipse cx="61.5" cy="543.5" fill="#000000" rx="6" ry="6" style="stroke: none; stroke-width: 1.0;"/><rect fill="#FEFECE" filter="url(#f18biryev84a7t)" height="50" rx="12.5" ry="12.5" style="stroke: #A80036; stroke-width: 1.5;" width="50" x="6" y="215"/><line style="stroke: #A80036; stroke-width: 1.5;" x1="6" x2="56" y1="241.2969" y2="241.2969"/><text fill="#000000" font-family="sans-serif" font-size="14" lengthAdjust="spacingAndGlyphs" textLength="18" x="22" y="232.9951">q6</text><rect fill="#FEFECE" filter="url(#f18biryev84a7t)" height="50" rx="12.5" ry="12.5" style="stroke: #A80036; stroke-width: 1.5;" width="50" x="88" y="8"/><line style="stroke: #A80036; stroke-width: 1.5;" x1="88" x2="138" y1="34.2969" y2="34.2969"/><text fill="#000000" font-family="sans-serif" font-size="14" lengthAdjust="spacingAndGlyphs" textLength="18" x="104" y="25.9951">q4</text><rect fill="#FEFECE" filter="url(#f18biryev84a7t)" height="50" rx="12.5" ry="12.5" style="stroke: #A80036; stroke-width: 1.5;" width="50" x="134" y="135"/><line style="stroke: #A80036; stroke-width: 1.5;" x1="134" x2="184" y1="161.2969" y2="161.2969"/><text fill="#000000" font-family="sans-serif" font-size="14" lengthAdjust="spacingAndGlyphs" textLength="18" x="150" y="152.9951">q2</text><rect fill="#FEFECE" filter="url(#f18biryev84a7t)" height="50" rx="12.5" ry="12.5" style="stroke: #A80036; stroke-width: 1.5;" width="50" x="87" y="295"/><line style="stroke: #A80036; stroke-width: 1.5;" x1="87" x2="137" y1="321.2969" y2="321.2969"/><text fill="#000000" font-family="sans-serif" font-size="14" lengthAdjust="spacingAndGlyphs" textLength="18" x="103" y="312.9951">q5</text><!--link q6 to q7--><path d="M34.6786,265.3823 C40.2152,303.5852 50.6718,375.7357 56.6029,416.6597 " fill="none" id="q6-q7" style="stroke: #A80036; stroke-width: 1.0;"/><polygon fill="#A80036" points="57.3383,421.7342,60.0058,412.2535,56.621,416.7859,52.0886,413.4011,57.3383,421.7342" style="stroke: #A80036; stroke-width: 1.0;"/><text fill="#000000" font-family="sans-serif" font-size="13" lengthAdjust="spacingAndGlyphs" textLength="18" x="47" y="324.5669">(1)</text><!--link q4 to q2--><path d="M107.1747,58.1109 C105.0392,72.3158 104.3451,90.1516 110,105 C114.341,116.3983 122.2486,126.9376 130.4628,135.6757 " fill="none" id="q4-q2" style="stroke: #A80036; stroke-width: 1.0;"/><polygon fill="#A80036" points="133.9924,139.3077,130.5885,130.0658,130.5077,135.722,124.8514,135.6412,133.9924,139.3077" style="stroke: #A80036; stroke-width: 1.0;"/><text fill="#000000" font-family="sans-serif" font-size="13" lengthAdjust="spacingAndGlyphs" textLength="50" x="111" y="101.0669">(1)pong</text><!--link q2 to q4--><path d="M167.0865,134.8459 C170.2909,120.627 171.9671,102.7916 166,88 C160.9197,75.4065 151.4228,64.0873 141.8558,55.0382 " fill="none" id="q2-q4" style="stroke: #A80036; stroke-width: 1.0;"/><polygon fill="#A80036" points="138.0524,51.5569,141.9904,60.5842,141.7406,54.9328,147.392,54.683,138.0524,51.5569" style="stroke: #A80036; stroke-width: 1.0;"/><text fill="#000000" font-family="sans-serif" font-size="13" lengthAdjust="spacingAndGlyphs" textLength="45" x="170" y="101.0669">(1)ping</text><!--link q4 to q6--><path d="M87.9781,50.0112 C75.7429,59.6891 61.9697,72.8886 54,88 C33.7564,126.384 29.9495,177.3259 29.8664,209.39 " fill="none" id="q4-q6" style="stroke: #A80036; stroke-width: 1.0;"/><polygon fill="#A80036" points="29.887,214.7592,33.8525,205.744,29.8679,209.7592,25.8526,205.7746,29.887,214.7592" style="stroke: #A80036; stroke-width: 1.0;"/><text fill="#000000" font-family="sans-serif" font-size="13" lengthAdjust="spacingAndGlyphs" textLength="42" x="55" y="101.0669">(2)quit</text><!--link q2 to q5--><path d="M151.5527,185.3525 C143.2334,213.6737 129.7725,259.4978 120.9037,289.6896 " fill="none" id="q2-q5" style="stroke: #A80036; stroke-width: 1.0;"/><polygon fill="#A80036" points="119.4124,294.7661,125.7869,287.2584,120.8217,289.9688,118.1113,285.0036,119.4124,294.7661" style="stroke: #A80036; stroke-width: 1.0;"/><text fill="#000000" font-family="sans-serif" font-size="13" lengthAdjust="spacingAndGlyphs" textLength="42" x="143" y="244.5669">(2)quit</text><!--link q5 to q7--><path d="M101.924,345.0911 C93.6117,365.7905 81.7969,395.2118 72.9971,417.125 " fill="none" id="q5-q7" style="stroke: #A80036; stroke-width: 1.0;"/><polygon fill="#A80036" points="71.055,421.961,78.1208,415.0999,72.9183,417.3212,70.697,412.1186,71.055,421.961" style="stroke: #A80036; stroke-width: 1.0;"/><text fill="#000000" font-family="sans-serif" font-size="13" lengthAdjust="spacingAndGlyphs" textLength="18" x="90" y="388.0669">(1)</text><!--link *start to q2--><path d="M269.6886,41.954 C261.0653,56.1227 243.0554,84.232 224,105 C213.1354,116.8411 199.7768,128.5436 188.0015,138.0899 " fill="none" id="*start-q2" style="stroke: #A80036; stroke-width: 1.0;"/><polygon fill="#A80036" points="184.0747,141.2418,193.5972,138.7275,187.974,138.112,188.5895,132.4887,184.0747,141.2418" style="stroke: #A80036; stroke-width: 1.0;"/><!--link q7 to *end--><path d="M61,472.2229 C61,489.8366 61,512.7774 61,527.6928 " fill="none" id="q7-*end" style="stroke: #A80036; stroke-width: 1.0;"/><polygon fill="#A80036" points="61,532.8002,65,523.8002,61,527.8002,57,523.8002,61,532.8002" style="stroke: #A80036; stroke-width: 1.0;"/><!--
@startuml 
state q6
state q4
state q2
state q5
q6 - -> q7:(1) 
q4 - -> q2:(1)pong
q4 - -> q6:(2)quit
q2 - -> q4:(1)ping
q2 - -> q5:(2)quit
q5 - -> q7:(1) 
[*] - -> q2
state q7
q7 - -> [*]
state q6 {
}
state q4 {
}
state q2 {
}
state q5 {
}
@enduml

PlantUML version 1.2019.05(Sun Apr 21 01:45:36 JST 2019)
(GPL source distribution)
Java Runtime: OpenJDK Runtime Environment
JVM: OpenJDK 64-Bit Server VM
Java Version: 11.0.4+11-post-Ubuntu-1ubuntu218.04.3
Operating System: Linux
OS Version: 4.15.0-58-generic
Default Encoding: UTF-8
Language: en
Country: US
--></g></svg>