<?xml version="1.0" encoding="UTF-8" standalone="no"?><svg xmlns="http://www.w3.org/2000/svg" xmlns:xlink="http://www.w3.org/1999/xlink" contentScriptType="application/ecmascript" contentStyleType="text/css" height="739px" preserveAspectRatio="none" style="width:174px;height:739px;" version="1.1" viewBox="0 0 174 739" width="174px" zoomAndPan="magnify"><defs><filter height="300%" id="fx539bfp5t6sb" width="300%" x="-1" y="-1"><feGaussianBlur result="blurOut" stdDeviation="2.0"/><feColorMatrix in="blurOut" result="blurOut2" type="matrix" values="0 0 0 0 0 0 0 0 0 0 0 0 0 0 0 0 0 0 .4 0"/><feOffset dx="4.0" dy="4.0" in="blurOut2" result="blurOut3"/><feBlend in="SourceGraphic" in2="blurOut3" mode="normal"/></filter></defs><g><rect fill="#FEFECE" filter="url(#fx539bfp5t6sb)" height="50" rx="12.5" ry="12.5" style="stroke: #A80036; stroke-width: 1.5;" width="50" x="6" y="597"/><line style="stroke: #A80036; stroke-width: 1.5;" x1="6" x2="56" y1="623.2969" y2="623.2969"/><text fill="#000000" font-family="sans-serif" font-size="14" lengthAdjust="spacingAndGlyphs" textLength="18" x="22" y="614.9951">q7</text><ellipse cx="60" cy="18" fill="#000000" filter="url(#fx539bfp5t6sb)" rx="10" ry="10" style="stroke: none; stroke-width: 1.0;"/><ellipse cx="31" cy="718" fill="none" filter="url(#fx539bfp5t6sb)" rx="10" ry="10" style="stroke: #000000; stroke-width: 1.0;"/><ellipse cx="31.5" cy="718.5" fill="#000000" rx="6" ry="6" style="stroke: none; stroke-width: 1.0;"/><rect fill="#FEFECE" filter="url(#fx539bfp5t6sb)" height="50" rx="12.5" ry="12.5" style="stroke: #A80036; stroke-width: 1.5;" width="50" x="6" y="470"/><line style="stroke: #A80036; stroke-width: 1.5;" x1="6" x2="56" y1="496.2969" y2="496.2969"/><text fill="#000000" font-family="sans-serif" font-size="14" lengthAdjust="spacingAndGlyphs" textLength="18" x="22" y="487.9951">q6</text><rect fill="#FEFECE" filter="url(#fx539bfp5t6sb)" height="50" rx="12.5" ry="12.5" style="stroke: #A80036; stroke-width: 1.5;" width="50" x="35" y="216"/><line style="stroke: #A80036; stroke-width: 1.5;" x1="35" x2="85" y1="242.2969" y2="242.2969"/><text fill="#000000" font-family="sans-serif" font-size="14" lengthAdjust="spacingAndGlyphs" textLength="18" x="51" y="233.9951">q4</text><rect fill="#FEFECE" filter="url(#fx539bfp5t6sb)" height="50" rx="12.5" ry="12.5" style="stroke: #A80036; stroke-width: 1.5;" width="50" x="35" y="89"/><line style="stroke: #A80036; stroke-width: 1.5;" x1="35" x2="85" y1="115.2969" y2="115.2969"/><text fill="#000000" font-family="sans-serif" font-size="14" lengthAdjust="spacingAndGlyphs" textLength="18" x="51" y="106.9951">q2</text><rect fill="#FEFECE" filter="url(#fx539bfp5t6sb)" height="50" rx="12.5" ry="12.5" style="stroke: #A80036; stroke-width: 1.5;" width="50" x="81" y="343"/><line style="stroke: #A80036; stroke-width: 1.5;" x1="81" x2="131" y1="369.2969" y2="369.2969"/><text fill="#000000" font-family="sans-serif" font-size="14" lengthAdjust="spacingAndGlyphs" textLength="18" x="97" y="360.9951">q5</text><!--link q6 to q7--><path d="M31,520.0911 C31,540.7035 31,569.9647 31,591.8484 " fill="none" id="q6-q7" style="stroke: #A80036; stroke-width: 1.0;"/><polygon fill="#A80036" points="31,596.961,35,587.961,31,591.961,27,587.961,31,596.961" style="stroke: #A80036; stroke-width: 1.0;"/><text fill="#000000" font-family="sans-serif" font-size="13" lengthAdjust="spacingAndGlyphs" textLength="18" x="32" y="563.0669">(1)</text><!--link q4 to q5--><path d="M54.1747,266.1109 C52.0392,280.3158 51.3451,298.1516 57,313 C61.341,324.3983 69.2486,334.9376 77.4628,343.6757 " fill="none" id="q4-q5" style="stroke: #A80036; stroke-width: 1.0;"/><polygon fill="#A80036" points="80.9924,347.3077,77.5885,338.0658,77.5077,343.722,71.8514,343.6412,80.9924,347.3077" style="stroke: #A80036; stroke-width: 1.0;"/><text fill="#000000" font-family="sans-serif" font-size="13" lengthAdjust="spacingAndGlyphs" textLength="50" x="58" y="309.0669">(1)pong</text><!--link q5 to q4--><path d="M114.0865,342.8459 C117.2909,328.627 118.9671,310.7916 113,296 C107.9197,283.4065 98.4228,272.0873 88.8558,263.0382 " fill="none" id="q5-q4" style="stroke: #A80036; stroke-width: 1.0;"/><polygon fill="#A80036" points="85.0524,259.5569,88.9904,268.5842,88.7406,262.9328,94.392,262.683,85.0524,259.5569" style="stroke: #A80036; stroke-width: 1.0;"/><text fill="#000000" font-family="sans-serif" font-size="13" lengthAdjust="spacingAndGlyphs" textLength="45" x="117" y="309.0669">(1)ping</text><!--link q4 to q6--><path d="M47.0486,266.1986 C37.444,286.3735 25.1593,315.7123 20,343 C12.1242,384.6556 18.4166,433.7129 24.2268,464.5878 " fill="none" id="q4-q6" style="stroke: #A80036; stroke-width: 1.0;"/><polygon fill="#A80036" points="25.2275,469.7587,27.4446,460.1626,24.2775,464.8498,19.5903,461.6827,25.2275,469.7587" style="stroke: #A80036; stroke-width: 1.0;"/><text fill="#000000" font-family="sans-serif" font-size="13" lengthAdjust="spacingAndGlyphs" textLength="42" x="21" y="372.5669">(2)quit</text><!--link q2 to q4--><path d="M60,139.0911 C60,159.7035 60,188.9647 60,210.8484 " fill="none" id="q2-q4" style="stroke: #A80036; stroke-width: 1.0;"/><polygon fill="#A80036" points="60,215.961,64,206.961,60,210.961,56,206.961,60,215.961" style="stroke: #A80036; stroke-width: 1.0;"/><text fill="#000000" font-family="sans-serif" font-size="13" lengthAdjust="spacingAndGlyphs" textLength="45" x="61" y="182.0669">(1)ping</text><!--link q5 to q6--><path d="M91.1824,393.0911 C78.907,413.8774 61.4375,443.4592 48.4799,465.4008 " fill="none" id="q5-q6" style="stroke: #A80036; stroke-width: 1.0;"/><polygon fill="#A80036" points="45.7868,469.961,53.8076,464.2456,48.3294,465.6557,46.9192,460.1775,45.7868,469.961" style="stroke: #A80036; stroke-width: 1.0;"/><text fill="#000000" font-family="sans-serif" font-size="13" lengthAdjust="spacingAndGlyphs" textLength="42" x="73" y="436.0669">(2)quit</text><!--link *start to q2--><path d="M60,28.2737 C60,41.3608 60,64.5555 60,83.5207 " fill="none" id="*start-q2" style="stroke: #A80036; stroke-width: 1.0;"/><polygon fill="#A80036" points="60,88.7458,64,79.7458,60,83.7458,56,79.7458,60,88.7458" style="stroke: #A80036; stroke-width: 1.0;"/><!--link q7 to *end--><path d="M31,647.2229 C31,664.8366 31,687.7774 31,702.6928 " fill="none" id="q7-*end" style="stroke: #A80036; stroke-width: 1.0;"/><polygon fill="#A80036" points="31,707.8002,35,698.8002,31,702.8002,27,698.8002,31,707.8002" style="stroke: #A80036; stroke-width: 1.0;"/><!--
@startuml 
state q6
state q4
state q2
state q5
q6 - -> q7:(1) 
q4 - -> q5:(1)pong
q4 - -> q6:(2)quit
q2 - -> q4:(1)ping
q5 - -> q4:(1)ping
q5 - -> q6:(2)quit
[*] - -> q2
state q7
q7 - -> [*]
state q6 {
}
state q4 {
}
state q2 {
}
state q5 {
}
@enduml

PlantUML version 1.2017.15(Tue Jul 04 01:45:34 JST 2017)
(GPL source distribution)
Java Runtime: OpenJDK Runtime Environment
JVM: OpenJDK 64-Bit Server VM
Java Version: 1.8.0_191-8u191-b12-2ubuntu0.18.04.1-b12
Operating System: Linux
OS Version: 4.15.0-46-generic
Default Encoding: UTF-8
Language: en
Country: US
--></g></svg>