<?xml version="1.0" encoding="UTF-8" standalone="no"?><svg xmlns="http://www.w3.org/2000/svg" xmlns:xlink="http://www.w3.org/1999/xlink" contentScriptType="application/ecmascript" contentStyleType="text/css" height="168px" preserveAspectRatio="none" style="width:409px;height:168px;" version="1.1" viewBox="0 0 409 168" width="409px" zoomAndPan="magnify"><defs><filter height="300%" id="fuiv7ubcz64vs" width="300%" x="-1" y="-1"><feGaussianBlur result="blurOut" stdDeviation="2.0"/><feColorMatrix in="blurOut" result="blurOut2" type="matrix" values="0 0 0 0 0 0 0 0 0 0 0 0 0 0 0 0 0 0 .4 0"/><feOffset dx="4.0" dy="4.0" in="blurOut2" result="blurOut3"/><feBlend in="SourceGraphic" in2="blurOut3" mode="normal"/></filter></defs><g><rect fill="#FEFECE" filter="url(#fuiv7ubcz64vs)" height="50" rx="12.5" ry="12.5" style="stroke: #A80036; stroke-width: 1.5;" width="50" x="267" y="8"/><line style="stroke: #A80036; stroke-width: 1.5;" x1="267" x2="317" y1="34.2969" y2="34.2969"/><text fill="#000000" font-family="sans-serif" font-size="14" lengthAdjust="spacingAndGlyphs" textLength="18" x="283" y="25.9951">q4</text><ellipse cx="16" cy="90" fill="#000000" filter="url(#fuiv7ubcz64vs)" rx="10" ry="10" style="stroke: none; stroke-width: 1.0;"/><ellipse cx="388" cy="33" fill="none" filter="url(#fuiv7ubcz64vs)" rx="10" ry="10" style="stroke: #000000; stroke-width: 1.0;"/><ellipse cx="388.5" cy="33.5" fill="#000000" rx="6" ry="6" style="stroke: none; stroke-width: 1.0;"/><rect fill="#FEFECE" filter="url(#fuiv7ubcz64vs)" height="50" rx="12.5" ry="12.5" style="stroke: #A80036; stroke-width: 1.5;" width="50" x="87" y="65"/><line style="stroke: #A80036; stroke-width: 1.5;" x1="87" x2="137" y1="91.2969" y2="91.2969"/><text fill="#000000" font-family="sans-serif" font-size="14" lengthAdjust="spacingAndGlyphs" textLength="18" x="103" y="82.9951">q2</text><rect fill="#FEFECE" filter="url(#fuiv7ubcz64vs)" height="50" rx="12.5" ry="12.5" style="stroke: #A80036; stroke-width: 1.5;" width="50" x="267" y="107"/><line style="stroke: #A80036; stroke-width: 1.5;" x1="267" x2="317" y1="133.2969" y2="133.2969"/><text fill="#000000" font-family="sans-serif" font-size="14" lengthAdjust="spacingAndGlyphs" textLength="18" x="283" y="124.9951">q5</text><!--link q2 to q4--><path d="M137.0282,82.0744 C169.7137,71.724 226.8796,53.6215 261.8949,42.5333 " fill="none" id="q2-q4" style="stroke: #A80036; stroke-width: 1.0;"/><polygon fill="#A80036" points="266.8948,40.95,257.1071,39.8539,262.1281,42.4596,259.5224,47.4806,266.8948,40.95" style="stroke: #A80036; stroke-width: 1.0;"/><text fill="#000000" font-family="sans-serif" font-size="13" lengthAdjust="spacingAndGlyphs" textLength="68" x="168" y="47.0669">(1)_accept</text><!--link q2 to q5--><path d="M137.0282,95.8399 C169.7137,103.4665 226.8796,116.8052 261.8949,124.9755 " fill="none" id="q2-q5" style="stroke: #A80036; stroke-width: 1.0;"/><polygon fill="#A80036" points="266.8948,126.1421,259.0392,120.2017,262.0256,125.0059,257.2213,127.9924,266.8948,126.1421" style="stroke: #A80036; stroke-width: 1.0;"/><text fill="#000000" font-family="sans-serif" font-size="13" lengthAdjust="spacingAndGlyphs" textLength="45" x="179.5" y="99.0669">(2)ping</text><!--link q5 to q2--><path d="M266.5725,140.8412 C240.5817,148.3881 199.5273,156.1218 167,143 C154.4065,137.9197 143.0873,128.4228 134.0382,118.8558 " fill="none" id="q5-q2" style="stroke: #A80036; stroke-width: 1.0;"/><polygon fill="#A80036" points="130.5569,115.0524,133.683,124.392,133.9328,118.7406,139.5842,118.9904,130.5569,115.0524" style="stroke: #A80036; stroke-width: 1.0;"/><text fill="#000000" font-family="sans-serif" font-size="13" lengthAdjust="spacingAndGlyphs" textLength="50" x="177" y="139.0669">(1)pong</text><!--link *start to q2--><path d="M26.2737,90 C39.3608,90 62.5555,90 81.5207,90 " fill="none" id="*start-q2" style="stroke: #A80036; stroke-width: 1.0;"/><polygon fill="#A80036" points="86.7458,90,77.7458,86,81.7458,90,77.7458,94,86.7458,90" style="stroke: #A80036; stroke-width: 1.0;"/><!--link q4 to *end--><path d="M317.2229,33 C334.8366,33 357.7774,33 372.6928,33 " fill="none" id="q4-*end" style="stroke: #A80036; stroke-width: 1.0;"/><polygon fill="#A80036" points="377.8002,33,368.8002,29,372.8002,33,368.8002,37,377.8002,33" style="stroke: #A80036; stroke-width: 1.0;"/><!--
@startuml 
left to right direction
state q2
state q5
q2 - -> q4:(1)_accept
q2 - -> q5:(2)ping
q5 - -> q2:(1)pong
[*] - -> q2
state q4
q4 - -> [*]
state q2 {
}
state q5 {
}
@enduml

PlantUML version 1.2017.15(Tue Jul 04 01:45:34 JST 2017)
(GPL source distribution)
Java Runtime: OpenJDK Runtime Environment
JVM: OpenJDK 64-Bit Server VM
Java Version: 1.8.0_181-8u181-b13-0ubuntu0.18.04.1-b13
Operating System: Linux
OS Version: 4.15.0-34-generic
Default Encoding: UTF-8
Language: en
Country: US
--></g></svg>